<svg width="34" height="34" viewBox="0 0 34 34" fill="none" xmlns="http://www.w3.org/2000/svg">
<path fill-rule="evenodd" clip-rule="evenodd" d="M17.5 7.375C15.7315 7.375 14.0899 7.8961 12.7129 8.79385C12.488 8.93894 12.2149 8.98912 11.9532 8.93342C11.6914 8.87772 11.4624 8.72067 11.3161 8.4966C11.1698 8.27253 11.1182 7.99966 11.1725 7.73763C11.2268 7.4756 11.3826 7.24573 11.6059 7.09825C13.2358 6.03669 15.1222 5.43503 17.0657 5.35682C19.0093 5.27861 20.9379 5.72675 22.6479 6.6539C24.3578 7.58106 25.7856 8.95281 26.7805 10.6243C27.7754 12.2957 28.3003 14.2049 28.3 16.15C28.3037 19.5272 27.7434 22.8812 26.6422 26.0738C26.6018 26.2032 26.5358 26.3231 26.4481 26.4265C26.3605 26.5298 26.253 26.6145 26.132 26.6756C26.0111 26.7367 25.8791 26.7728 25.7439 26.7819C25.6087 26.791 25.473 26.7729 25.3449 26.7286C25.2169 26.6843 25.099 26.6148 24.9983 26.5241C24.8976 26.4334 24.8161 26.3234 24.7587 26.2007C24.7013 26.0779 24.6691 25.9449 24.664 25.8095C24.659 25.6741 24.6811 25.539 24.7292 25.4123C25.7565 22.4325 26.279 19.302 26.275 16.15C26.275 14.9976 26.048 13.8566 25.607 12.7919C25.1661 11.7273 24.5197 10.76 23.7049 9.94513C22.89 9.1303 21.9227 8.48394 20.858 8.04295C19.7934 7.60197 18.6523 7.375 17.5 7.375ZM9.84955 9.9616C10.0744 10.1084 10.2317 10.3385 10.2869 10.6013C10.3421 10.8641 10.2906 11.138 10.1438 11.3629C9.21489 12.7864 8.72176 14.4502 8.725 16.15C8.72797 18.2408 8.12138 20.2872 6.97945 22.0387C6.83283 22.2637 6.60282 22.4213 6.34003 22.4767C6.07723 22.5322 5.80318 22.481 5.57815 22.3343C5.35312 22.1877 5.19555 21.9577 5.1401 21.6949C5.08466 21.4321 5.13588 21.1581 5.2825 20.933C6.21022 19.5105 6.70284 17.8483 6.7 16.15C6.7 13.9765 7.3426 11.9515 8.44825 10.2572C8.52083 10.1458 8.61465 10.0498 8.72436 9.97458C8.83408 9.89941 8.95752 9.84658 9.08765 9.81913C9.21778 9.79167 9.35204 9.79012 9.48277 9.81457C9.6135 9.83901 9.73813 9.88897 9.84955 9.9616ZM17.5 12.262C16.9633 12.2618 16.432 12.3682 15.9368 12.5751C15.4417 12.782 14.9925 13.0853 14.6156 13.4672C14.2386 13.8492 13.9414 14.3023 13.741 14.8002C13.5407 15.298 13.4413 15.8307 13.4486 16.3673C13.4035 19.9487 12.1166 23.4033 9.8077 26.1413C9.63317 26.3409 9.38735 26.464 9.12305 26.4843C8.85874 26.5045 8.59703 26.4203 8.39411 26.2498C8.1912 26.0792 8.06327 25.8359 8.0378 25.572C8.01233 25.3081 8.09135 25.0448 8.2579 24.8386C10.308 22.4081 11.4301 19.3296 11.425 16.15C11.425 16.1122 11.4277 16.0757 11.4304 16.0393C11.4899 14.459 12.1633 12.9642 13.3075 11.8726C14.4517 10.7809 15.9765 10.1785 17.5578 10.1933C19.1392 10.208 20.6524 10.8388 21.776 11.9517C22.8996 13.0645 23.545 14.5716 23.575 16.1527V16.3525L23.5682 16.7534C23.5622 17.022 23.4496 17.2771 23.2555 17.4627C23.0613 17.6482 22.8013 17.7491 22.5328 17.743C22.2643 17.7369 22.0091 17.6244 21.8236 17.4302C21.638 17.236 21.5372 16.9761 21.5432 16.7075C21.5473 16.559 21.5486 16.4119 21.55 16.2647C21.5376 15.1988 21.1054 14.1808 20.3472 13.4315C19.589 12.6821 18.566 12.2619 17.5 12.262ZM17.5 15.1375C17.7685 15.1375 18.0261 15.2442 18.2159 15.4341C18.4058 15.6239 18.5125 15.8815 18.5125 16.15C18.5125 20.8885 16.91 25.2557 14.2181 28.736C14.1377 28.8438 14.0366 28.9344 13.9208 29.0027C13.805 29.0709 13.6767 29.1154 13.5435 29.1336C13.4103 29.1517 13.2748 29.1431 13.1449 29.1084C13.015 29.0736 12.8934 29.0133 12.7871 28.931C12.6808 28.8487 12.5919 28.7461 12.5257 28.629C12.4595 28.512 12.4172 28.383 12.4014 28.2495C12.3855 28.116 12.3965 27.9807 12.4335 27.8514C12.4705 27.7222 12.5329 27.6016 12.617 27.4967C15.1325 24.2498 16.4943 20.2573 16.4875 16.15C16.4875 15.8815 16.5942 15.6239 16.7841 15.4341C16.9739 15.2442 17.2315 15.1375 17.5 15.1375ZM22.2641 20.1298C22.5271 20.1838 22.7578 20.3399 22.9057 20.564C23.0535 20.788 23.1063 21.0616 23.0525 21.3245C22.4827 24.1038 21.4529 26.7684 20.0056 29.2085C19.9402 29.3274 19.8515 29.4318 19.745 29.5157C19.6384 29.5996 19.516 29.6612 19.3852 29.6969C19.2544 29.7326 19.1177 29.7417 18.9833 29.7235C18.8488 29.7054 18.7194 29.6604 18.6027 29.5913C18.486 29.5222 18.3844 29.4303 18.3039 29.3212C18.2234 29.212 18.1656 29.0878 18.134 28.9559C18.1025 28.824 18.0977 28.6871 18.12 28.5533C18.1424 28.4196 18.1914 28.2916 18.2641 28.1771C19.5966 25.9305 20.5447 23.4771 21.0694 20.9182C21.1234 20.6553 21.2795 20.4245 21.5036 20.2767C21.7276 20.1288 22.0012 20.076 22.2641 20.1298Z" fill="#3C3C3B"/>
<path d="M33 9V5C33 2.79086 31.2091 1 29 1H25" stroke="#3C3C3B"/>
<path d="M1 25V29C1 31.2091 2.79086 33 5 33H9" stroke="#3C3C3B"/>
<path d="M25 33H29C31.2091 33 33 31.2091 33 29V25" stroke="#3C3C3B"/>
<path d="M9 1H5C2.79086 1 1 2.79086 1 5L1 9" stroke="#3C3C3B"/>
</svg>
