<svg width="104" height="77" viewBox="0 0 104 77" fill="none" xmlns="http://www.w3.org/2000/svg">
<path d="M11.2108 67.265C11.2108 69.2423 10.3681 70.3676 8.67787 70.6454L11.3451 76.3782H9.09926L6.46904 70.7149H2.02823V76.3782H0V62.1991H7.76099C10.0532 62.1991 11.2016 63.3475 11.2016 65.6489V67.265H11.2108ZM2.03287 68.6913H7.65912C8.20091 68.6913 8.58989 68.5709 8.82605 68.3347C9.06222 68.0985 9.18261 67.7096 9.18261 67.1678V65.7554C9.18261 65.2136 9.06222 64.8247 8.82605 64.5885C8.58989 64.3523 8.20091 64.2319 7.65912 64.2319H2.03287V68.6913Z" fill="#1CB3B0"/>
<path d="M14.5912 62.2038H24.9222V64.232H16.6148V68.2838H23.7043V70.3121H16.6148V74.3546H24.9222V76.3829H14.5912V62.2038Z" fill="#1CB3B0"/>
<path d="M29.9836 70.3121C29.7057 70.3121 29.4464 70.2565 29.1964 70.15C28.9509 70.0435 28.7333 69.8953 28.5481 69.7147C28.3629 69.5341 28.2193 69.3211 28.1128 69.071C28.0063 68.8256 27.9554 68.5617 27.9554 68.2838V64.232C27.9554 63.9542 28.0063 63.6948 28.1128 63.4448C28.2193 63.1994 28.3629 62.9817 28.5481 62.8011C28.7333 62.6205 28.9463 62.4723 29.1964 62.3658C29.4418 62.2547 29.7057 62.2038 29.9836 62.2038H36.8647C37.1426 62.2038 37.4019 62.2593 37.652 62.3658C37.8974 62.4723 38.115 62.6205 38.3003 62.8011C38.4855 62.9817 38.629 63.1947 38.7355 63.4448C38.842 63.6902 38.893 63.9542 38.893 64.232V66.0611H36.8647V64.232H29.9836V68.2838H36.8647C37.1426 68.2838 37.4019 68.3348 37.652 68.4413C37.8974 68.5478 38.115 68.6913 38.3003 68.8766C38.4855 69.0618 38.629 69.2748 38.7355 69.5249C38.842 69.7703 38.893 70.0342 38.893 70.3121V74.3546C38.893 74.6325 38.842 74.8918 38.7355 75.1418C38.629 75.3873 38.4855 75.6049 38.3003 75.7901C38.115 75.9754 37.8974 76.1189 37.652 76.2254C37.4065 76.3319 37.1426 76.3829 36.8647 76.3829H29.7845C29.5066 76.3829 29.2473 76.3319 28.9973 76.2254C28.7518 76.1189 28.5342 75.9754 28.3489 75.7901C28.1637 75.6049 28.0202 75.3919 27.9137 75.1418C27.8072 74.8964 27.7562 74.6325 27.7562 74.3546V72.5348H29.7845V74.3546H36.8647V70.3121H29.9836Z" fill="#1CB3B0"/>
<path d="M42.5419 62.2038H52.8729V64.232H44.5655V68.2838H51.655V70.3121H44.5655V74.3546H52.8729V76.3829H42.5419V62.2038Z" fill="#1CB3B0"/>
<path d="M67.1121 67.265C67.1121 69.2423 66.2693 70.3675 64.5791 70.6454L67.2464 76.3781H65.0005L62.3703 70.7148H57.9295V76.3781H55.9012V62.1991H63.6622C65.9544 62.1991 67.1028 63.3475 67.1028 65.6489V67.265H67.1121ZM57.9341 68.6912H63.5604C64.1022 68.6912 64.4911 68.5709 64.7273 68.3347C64.9634 68.0985 65.0839 67.7095 65.0839 67.1678V65.7554C65.0839 65.2136 64.9634 64.8247 64.7273 64.5885C64.4911 64.3523 64.1022 64.2319 63.5604 64.2319H57.9341V68.6912Z" fill="#1CB3B0"/>
<path d="M74.7435 76.3829L69.2747 62.2038H71.4511L75.8595 73.8684L80.2771 62.2038H82.4443L76.9755 76.3829H74.7435Z" fill="#1CB3B0"/>
<path d="M91.1454 62.2038L96.6142 76.3829H94.586L93.331 73.1182H86.9361L85.6812 76.3829H83.653L89.1218 62.2038H91.1454ZM87.7048 71.09H92.5485L90.1359 64.8432L87.7048 71.09Z" fill="#1CB3B0"/>
<path d="M94.3263 3.72324L95.9239 7.86304H95.3312L94.9653 6.90913H93.0992L92.7333 7.86304H92.1406L93.7382 3.72324H94.3263ZM93.3214 6.3164H94.7338L94.0299 4.49192L93.3214 6.3164Z" fill="#1CB3B0"/>
<path d="M96.6324 7.86301V3.72321H98.8968C99.5683 3.72321 99.9017 4.06124 99.9017 4.73269V5.32078C99.9017 5.99223 99.5683 6.33026 98.8968 6.33026H97.2205V7.86765H96.6324V7.86301ZM97.2252 5.73291H98.8691C99.0265 5.73291 99.1423 5.7005 99.2117 5.63104C99.2812 5.56158 99.3136 5.45044 99.3136 5.28836V4.75584C99.3136 4.5984 99.2766 4.48263 99.2117 4.41317C99.1423 4.34371 99.0311 4.31129 98.8691 4.31129H97.2252V5.73291Z" fill="#1CB3B0"/>
<path d="M100.731 7.86301V3.72321H102.995C103.666 3.72321 104 4.06124 104 4.73269V5.32078C104 5.99223 103.666 6.33026 102.995 6.33026H101.319V7.86765H100.731V7.86301ZM101.319 5.73291H102.963C103.12 5.73291 103.236 5.7005 103.305 5.63104C103.375 5.56158 103.407 5.45044 103.407 5.28836V4.75584C103.407 4.5984 103.37 4.48263 103.305 4.41317C103.236 4.34371 103.125 4.31129 102.963 4.31129H101.319V5.73291Z" fill="#1CB3B0"/>
<path d="M100.527 35.9897L86.7136 5.0708C86.3663 4.29747 85.6068 3.79736 84.7594 3.79736C83.0739 3.79736 79.9574 3.79736 76.0955 3.79736C75.1878 3.79736 74.3404 4.25117 73.8403 5.00597L72.7243 6.69153C72.4928 7.04346 72.0992 7.25184 71.6824 7.25184H68.5706C67.6954 7.25184 67.1675 6.27477 67.6538 5.54312L67.8251 5.28381C68.2465 4.64941 67.7927 3.79736 67.0286 3.79736C61.9164 3.79736 52.7384 3.81126 49.5016 3.82052C48.7699 3.82052 48.0938 4.19097 47.691 4.79759L46.5426 6.52946C46.2462 6.974 45.7507 7.23795 45.2182 7.23795H42.3426C41.4442 7.23795 40.9024 6.23309 41.4025 5.48292L41.8378 4.83001C42.1295 4.39009 41.8054 3.79736 41.2775 3.79736H36.3505C35.5818 3.79736 34.8594 4.17708 34.4241 4.80685L6.94578 44.5472C5.87147 46.1031 6.98283 48.2239 8.87214 48.2239L55.4798 48.2378C56.267 48.2378 56.9986 47.8442 57.4339 47.1867L61.9997 40.2916C62.435 39.6341 63.1713 39.2404 63.9585 39.2404L98.3921 39.2821C100.082 39.2914 101.217 37.541 100.527 35.9897ZM53.4886 14.4433L55.1463 11.9427C55.4381 11.5028 55.9289 11.2388 56.4568 11.2388H58.5221C59.7724 11.2388 60.5225 12.6327 59.8279 13.6792L58.1655 16.1798C57.8738 16.6197 57.3829 16.8836 56.855 16.8836H54.7898C53.5441 16.8836 52.7986 15.4898 53.4886 14.4433ZM54.3499 21.9403L52.6921 24.4409C52.4004 24.8808 51.9095 25.1447 51.3816 25.1447H49.321C48.0707 25.1447 47.3205 23.7509 48.0151 22.7044L49.6729 20.2038C49.9646 19.7639 50.4555 19.4999 50.9834 19.4999H53.044C54.2943 19.5046 55.0398 20.8984 54.3499 21.9403ZM44.7459 14.4433L46.4083 11.9427C46.7 11.5028 47.1909 11.2388 47.7188 11.2388H49.7794C51.0297 11.2388 51.7798 12.6327 51.0852 13.6792L49.4275 16.1798C49.1357 16.6197 48.6449 16.8836 48.117 16.8836H46.0564C44.8014 16.879 44.0513 15.4852 44.7459 14.4433ZM45.6025 21.9357L43.9448 24.4362C43.653 24.8761 43.1622 25.1401 42.6343 25.1401H40.5737C39.3234 25.1401 38.5732 23.7463 39.2678 22.6997L40.9256 20.1992C41.2173 19.7593 41.7082 19.4953 42.2361 19.4953H44.2967C45.547 19.4999 46.2925 20.8938 45.6025 21.9357ZM35.8596 14.647L37.698 11.8732C37.962 11.4704 38.4111 11.2296 38.8927 11.2296H41.2821C42.4259 11.2296 43.1112 12.503 42.4768 13.4569L40.6385 16.2307C40.3745 16.6336 39.9254 16.8744 39.4438 16.8744H37.0543C35.9106 16.8744 35.2252 15.6009 35.8596 14.647ZM30.5159 22.6997L32.1736 20.1992C32.4654 19.7593 32.9562 19.4953 33.4841 19.4953H35.5447C36.795 19.4953 37.5452 20.8891 36.8506 21.9357L35.1882 24.4362C34.8965 24.8761 34.4056 25.1401 33.8777 25.1401H31.8171C30.5714 25.1355 29.8259 23.7416 30.5159 22.6997ZM26.2047 37.9855L24.5469 40.4861C24.2552 40.926 23.7644 41.19 23.2365 41.19H21.1758C19.9255 41.19 19.1754 39.7961 19.87 38.7496L21.5277 36.249C21.8195 35.8091 22.3103 35.5452 22.8382 35.5452H24.8989C26.1491 35.5452 26.8993 36.939 26.2047 37.9855ZM25.348 30.4885L27.0058 27.9879C27.2975 27.548 27.7884 27.2841 28.3163 27.2841H30.3769C31.6272 27.2841 32.3774 28.6779 31.6828 29.7244L30.025 32.225C29.7333 32.6649 29.2424 32.9289 28.7145 32.9289H26.6539C25.4036 32.9242 24.6534 31.5304 25.348 30.4885ZM34.952 37.9902L33.2896 40.4907C32.9979 40.9306 32.507 41.1946 31.9791 41.1946H29.9185C28.6682 41.1946 27.918 39.8008 28.6126 38.7542L30.2704 36.2537C30.5622 35.8138 31.053 35.5498 31.5809 35.5498H33.6416C34.8965 35.5498 35.642 36.9436 34.952 37.9902ZM34.0953 30.4931L35.7531 27.9926C36.0449 27.5527 36.5357 27.2887 37.0636 27.2887H39.1243C40.3745 27.2887 41.1247 28.6825 40.4301 29.7291L38.7723 32.2296C38.4806 32.6695 37.9897 32.9335 37.4618 32.9335H35.4012C34.1463 32.9289 33.4007 31.535 34.0953 30.4931ZM43.6994 37.9902L42.0416 40.4907C41.7498 40.9306 41.259 41.1946 40.7311 41.1946H38.6704C37.4202 41.1946 36.67 39.8008 37.3646 38.7542L39.027 36.2537C39.3187 35.8138 39.8096 35.5498 40.3375 35.5498H42.3981C43.6438 35.5544 44.3893 36.9483 43.6994 37.9902ZM42.838 30.4978L44.4958 27.9972C44.7876 27.5573 45.2784 27.2933 45.8063 27.2933H47.8669C49.1172 27.2933 49.8674 28.6872 49.1728 29.7337L47.515 32.2343C47.2233 32.6742 46.7324 32.9381 46.2045 32.9381H44.1393C42.8936 32.9335 42.1481 31.5397 42.838 30.4978ZM52.442 37.9948L50.7843 40.4954C50.4925 40.9353 50.0017 41.1992 49.4738 41.1992H47.4085C46.1582 41.1992 45.4081 39.8054 46.1027 38.7589L47.7651 36.2583C48.0568 35.8184 48.5476 35.5544 49.0755 35.5544H51.1362C52.3865 35.5591 53.1366 36.9529 52.442 37.9948ZM57.9247 29.7337L56.267 32.2343C55.9752 32.6742 55.4844 32.9381 54.9565 32.9381H52.8958C51.6456 32.9381 50.8954 31.5443 51.59 30.4978L53.2478 27.9972C53.5395 27.5573 54.0303 27.2933 54.5582 27.2933H56.6189C57.8692 27.298 58.6193 28.6918 57.9247 29.7337ZM63.0972 21.9449L61.4394 24.4455C61.1477 24.8854 60.6568 25.1493 60.1289 25.1493H58.0683C56.818 25.1493 56.0678 23.7555 56.7624 22.709L58.4202 20.2084C58.7119 19.7685 59.2028 19.5046 59.7307 19.5046H61.7913C63.0416 19.5046 63.7872 20.903 63.0972 21.9449ZM65.607 16.8882H63.5464C62.2961 16.8882 61.5459 15.4944 62.2405 14.4479L63.8983 11.9473C64.19 11.5074 64.6809 11.2435 65.2088 11.2435H67.274C68.5243 11.2435 69.2745 12.6373 68.5799 13.6838L66.9175 16.1844C66.6257 16.6243 66.1349 16.8882 65.607 16.8882ZM67.4639 32.5677C67.3574 32.5677 67.2926 32.4473 67.3528 32.3593L82.0459 9.99319L92.826 32.5816L67.4639 32.5677Z" fill="#1CB3B0"/>
<path d="M44.7411 5.94583H43.338C42.8796 5.94583 42.5971 5.44572 42.8333 5.05674L45.4774 0.662251C45.7275 0.245492 46.1766 -0.00456745 46.6628 6.32107e-05L47.9409 0.0139546C48.4225 0.0185853 48.7189 0.546485 48.4734 0.958614L45.9173 5.27901C45.6719 5.69114 45.2227 5.94583 44.7411 5.94583Z" fill="#1CB3B0"/>
<path d="M70.9137 5.9968H69.5106C69.0522 5.9968 68.7697 5.49668 69.0059 5.10771L71.65 0.713216C71.9001 0.296456 72.3492 0.0463969 72.8354 0.0510276L74.0672 0.064919C74.5719 0.0695496 74.8776 0.61597 74.6229 1.05125L72.0899 5.32998C71.8399 5.74211 71.3953 5.9968 70.9137 5.9968Z" fill="#1CB3B0"/>
</svg>
