<svg width="56" height="41" viewBox="0 0 56 41" fill="none" xmlns="http://www.w3.org/2000/svg">
<path d="M5.97301 35.838C5.97301 36.8915 5.52399 37.491 4.62347 37.6391L6.04455 40.6934H4.84798L3.44663 37.6761H1.08062V40.6934H0V33.139H4.13497C5.35622 33.139 5.96807 33.7508 5.96807 34.977V35.838H5.97301ZM1.08309 36.5979H4.08069C4.36935 36.5979 4.5766 36.5338 4.70242 36.408C4.82825 36.2821 4.89239 36.0749 4.89239 35.7862V35.0337C4.89239 34.7451 4.82825 34.5378 4.70242 34.412C4.5766 34.2862 4.36935 34.222 4.08069 34.222H1.08309V36.5979Z" fill="#1CB3B0"/>
<path d="M7.77405 33.1414H13.2783V34.2221H8.8522V36.3808H12.6294V37.4614H8.8522V39.6153H13.2783V40.6959H7.77405V33.1414Z" fill="#1CB3B0"/>
<path d="M15.9749 37.4614C15.8269 37.4614 15.6887 37.4318 15.5555 37.3751C15.4247 37.3183 15.3088 37.2394 15.2101 37.1432C15.1114 37.047 15.0349 36.9335 14.9782 36.8002C14.9214 36.6695 14.8943 36.5289 14.8943 36.3808V34.2221C14.8943 34.074 14.9214 33.9359 14.9782 33.8026C15.0349 33.6719 15.1114 33.5559 15.2101 33.4597C15.3088 33.3635 15.4223 33.2845 15.5555 33.2278C15.6863 33.1686 15.8269 33.1414 15.9749 33.1414H19.6411C19.7892 33.1414 19.9273 33.171 20.0605 33.2278C20.1913 33.2845 20.3073 33.3635 20.4059 33.4597C20.5046 33.5559 20.5811 33.6694 20.6379 33.8026C20.6946 33.9334 20.7217 34.074 20.7217 34.2221V35.1966H19.6411V34.2221H15.9749V36.3808H19.6411C19.7892 36.3808 19.9273 36.408 20.0605 36.4647C20.1913 36.5214 20.3073 36.5979 20.4059 36.6966C20.5046 36.7953 20.5811 36.9088 20.6379 37.042C20.6946 37.1728 20.7217 37.3134 20.7217 37.4614V39.6153C20.7217 39.7633 20.6946 39.9015 20.6379 40.0347C20.5811 40.1655 20.5046 40.2814 20.4059 40.3801C20.3073 40.4788 20.1913 40.5553 20.0605 40.612C19.9298 40.6688 19.7892 40.6959 19.6411 40.6959H15.8688C15.7208 40.6959 15.5826 40.6688 15.4494 40.612C15.3187 40.5553 15.2027 40.4788 15.104 40.3801C15.0053 40.2814 14.9288 40.1679 14.8721 40.0347C14.8153 39.9039 14.7882 39.7633 14.7882 39.6153V38.6457H15.8688V39.6153H19.6411V37.4614H15.9749Z" fill="#1CB3B0"/>
<path d="M22.6658 33.1414H28.1701V34.2221H23.744V36.3808H27.5212V37.4614H23.744V39.6153H28.1701V40.6959H22.6658V33.1414Z" fill="#1CB3B0"/>
<path d="M35.7566 35.8381C35.7566 36.8915 35.3076 37.4911 34.407 37.6391L35.8281 40.6934H34.6316L33.2302 37.6761H30.8642V40.6934H29.7836V33.139H33.9185C35.1398 33.139 35.7516 33.7508 35.7516 34.977V35.8381H35.7566ZM30.8667 36.5979H33.8643C34.1529 36.5979 34.3602 36.5338 34.486 36.408C34.6118 36.2821 34.676 36.0749 34.676 35.7862V35.0338C34.676 34.7451 34.6118 34.5379 34.486 34.412C34.3602 34.2862 34.1529 34.2221 33.8643 34.2221H30.8667V36.5979Z" fill="#1CB3B0"/>
<path d="M39.8225 40.6959L36.9088 33.1414H38.0683L40.4171 39.3562L42.7707 33.1414H43.9254L41.0116 40.6959H39.8225Z" fill="#1CB3B0"/>
<path d="M48.5612 33.1414L51.4749 40.6959H50.3943L49.7257 38.9565H46.3186L45.6499 40.6959H44.5693L47.4831 33.1414H48.5612ZM46.7281 37.8759H49.3088L48.0234 34.5477L46.7281 37.8759Z" fill="#1CB3B0"/>
<path d="M50.256 1.9837L51.1072 4.18935H50.7914L50.5965 3.68111H49.6022L49.4073 4.18935H49.0915L49.9427 1.9837H50.256ZM49.7206 3.36531H50.4731L50.0981 2.39325L49.7206 3.36531Z" fill="#1CB3B0"/>
<path d="M51.4847 4.18935V1.9837H52.6911C53.0489 1.9837 53.2265 2.1638 53.2265 2.52154V2.83487C53.2265 3.19261 53.0489 3.37271 52.6911 3.37271H51.798V4.19182H51.4847V4.18935ZM51.8005 3.05445H52.6763C52.7602 3.05445 52.8219 3.03718 52.8589 3.00017C52.8959 2.96317 52.9132 2.90395 52.9132 2.8176V2.53388C52.9132 2.45 52.8934 2.38832 52.8589 2.35131C52.8219 2.3143 52.7627 2.29703 52.6763 2.29703H51.8005V3.05445Z" fill="#1CB3B0"/>
<path d="M53.6682 4.18935V1.9837H54.8746C55.2323 1.9837 55.41 2.1638 55.41 2.52154V2.83487C55.41 3.19261 55.2323 3.37271 54.8746 3.37271H53.9815V4.19182H53.6682V4.18935ZM53.9815 3.05445H54.8573C54.9412 3.05445 55.0029 3.03718 55.0399 3.00017C55.0769 2.96317 55.0942 2.90395 55.0942 2.8176V2.53388C55.0942 2.45 55.0744 2.38832 55.0399 2.35131C55.0029 2.3143 54.9437 2.29703 54.8573 2.29703H53.9815V3.05445Z" fill="#1CB3B0"/>
<path d="M53.5596 19.1749L46.2 2.70164C46.015 2.28962 45.6104 2.02317 45.1589 2.02317C44.2608 2.02317 42.6004 2.02317 40.5428 2.02317C40.0593 2.02317 39.6078 2.26495 39.3413 2.6671L38.7467 3.56515C38.6234 3.75265 38.4137 3.86368 38.1916 3.86368H36.5337C36.0674 3.86368 35.7861 3.3431 36.0452 2.95329L36.1365 2.81513C36.361 2.47713 36.1192 2.02317 35.7121 2.02317C32.9884 2.02317 28.0984 2.03057 26.3739 2.03551C25.9841 2.03551 25.6239 2.23288 25.4092 2.55608L24.7974 3.4788C24.6395 3.71565 24.3755 3.85628 24.0918 3.85628H22.5597C22.081 3.85628 21.7924 3.3209 22.0588 2.92122L22.2907 2.57335C22.4462 2.33897 22.2735 2.02317 21.9922 2.02317H19.3671C18.9576 2.02317 18.5727 2.22548 18.3408 2.56101L3.70065 23.7342C3.12826 24.5632 3.72038 25.6932 4.72699 25.6932L29.559 25.7006C29.9784 25.7006 30.3682 25.4908 30.6001 25.1405L33.0328 21.4669C33.2647 21.1166 33.657 20.9068 34.0764 20.9068L52.4222 20.9291C53.3227 20.934 53.9272 20.0014 53.5596 19.1749ZM28.4981 7.69518L29.3814 6.36292C29.5368 6.12854 29.7983 5.98791 30.0796 5.98791H31.1799C31.8461 5.98791 32.2457 6.73052 31.8757 7.2881L30.99 8.62037C30.8345 8.85475 30.573 8.99538 30.2917 8.99538H29.1914C28.5277 8.99538 28.1305 8.25276 28.4981 7.69518ZM28.957 11.6895L28.0738 13.0218C27.9183 13.2562 27.6568 13.3968 27.3756 13.3968H26.2777C25.6115 13.3968 25.2119 12.6542 25.5819 12.0966L26.4652 10.7643C26.6206 10.53 26.8821 10.3893 27.1634 10.3893H28.2613C28.9274 10.3918 29.3246 11.1344 28.957 11.6895ZM23.8401 7.69518L24.7258 6.36292C24.8813 6.12854 25.1428 5.98791 25.424 5.98791H26.5219C27.1881 5.98791 27.5877 6.73052 27.2177 7.2881L26.3344 8.62037C26.179 8.85475 25.9175 8.99538 25.6362 8.99538H24.5383C23.8697 8.99291 23.47 8.2503 23.8401 7.69518ZM24.2965 11.6871L23.4133 13.0193C23.2579 13.2537 22.9963 13.3943 22.7151 13.3943H21.6172C20.9511 13.3943 20.5514 12.6517 20.9215 12.0941L21.8047 10.7619C21.9601 10.5275 22.2217 10.3869 22.5029 10.3869H23.6008C24.2669 10.3893 24.6641 11.1319 24.2965 11.6871ZM19.1056 7.80374L20.0851 6.32591C20.2257 6.11126 20.465 5.98297 20.7216 5.98297H21.9947C22.6041 5.98297 22.9692 6.66144 22.6312 7.16968L21.6517 8.64751C21.5111 8.86215 21.2718 8.99045 21.0152 8.99045H19.7422C19.1328 8.99045 18.7676 8.31198 19.1056 7.80374ZM16.2585 12.0941L17.1418 10.7619C17.2972 10.5275 17.5587 10.3869 17.84 10.3869H18.9379C19.604 10.3869 20.0037 11.1295 19.6336 11.6871L18.7479 13.0193C18.5925 13.2537 18.3309 13.3943 18.0497 13.3943H16.9518C16.2881 13.3919 15.8909 12.6493 16.2585 12.0941ZM13.9616 20.2382L13.0783 21.5705C12.9229 21.8049 12.6614 21.9455 12.3801 21.9455H11.2822C10.6161 21.9455 10.2164 21.2029 10.5865 20.6453L11.4698 19.3131C11.6252 19.0787 11.8867 18.9381 12.168 18.9381H13.2658C13.932 18.9381 14.3317 19.6807 13.9616 20.2382ZM13.5052 16.2439L14.3884 14.9116C14.5438 14.6773 14.8054 14.5366 15.0866 14.5366H16.1845C16.8506 14.5366 17.2503 15.2792 16.8802 15.8368L15.997 17.1691C15.8416 17.4035 15.58 17.5441 15.2988 17.5441H14.2009C13.5348 17.5416 13.1351 16.799 13.5052 16.2439ZM18.6221 20.2407L17.7363 21.573C17.5809 21.8074 17.3194 21.948 17.0381 21.948H15.9403C15.2741 21.948 14.8744 21.2054 15.2445 20.6478L16.1278 19.3155C16.2832 19.0812 16.5447 18.9405 16.826 18.9405H17.9239C18.5925 18.9405 18.9897 19.6831 18.6221 20.2407ZM18.1656 16.2464L19.0489 14.9141C19.2043 14.6797 19.4658 14.5391 19.7471 14.5391H20.845C21.5111 14.5391 21.9108 15.2817 21.5407 15.8393L20.6575 17.1716C20.502 17.4059 20.2405 17.5466 19.9593 17.5466H18.8614C18.1928 17.5441 17.7956 16.8015 18.1656 16.2464ZM23.2825 20.2407L22.3993 21.573C22.2439 21.8074 21.9823 21.948 21.7011 21.948H20.6032C19.9371 21.948 19.5374 21.2054 19.9075 20.6478L20.7932 19.3155C20.9486 19.0812 21.2101 18.9405 21.4914 18.9405H22.5893C23.2529 18.943 23.6501 19.6856 23.2825 20.2407ZM22.8236 16.2488L23.7069 14.9166C23.8623 14.6822 24.1238 14.5416 24.4051 14.5416H25.503C26.1691 14.5416 26.5688 15.2842 26.1987 15.8418L25.3155 17.174C25.16 17.4084 24.8985 17.549 24.6173 17.549H23.5169C22.8532 17.5466 22.456 16.804 22.8236 16.2488ZM27.9405 20.2432L27.0573 21.5755C26.9019 21.8098 26.6404 21.9505 26.3591 21.9505H25.2587C24.5926 21.9505 24.1929 21.2078 24.563 20.6503L25.4487 19.318C25.6041 19.0836 25.8657 18.943 26.1469 18.943H27.2448C27.9109 18.9455 28.3106 19.6881 27.9405 20.2432ZM30.8617 15.8418L29.9784 17.174C29.823 17.4084 29.5615 17.549 29.2802 17.549H28.1823C27.5162 17.549 27.1165 16.8064 27.4866 16.2488L28.3698 14.9166C28.5253 14.6822 28.7868 14.5416 29.068 14.5416H30.1659C30.8321 14.544 31.2317 15.2866 30.8617 15.8418ZM33.6175 11.692L32.7342 13.0243C32.5788 13.2586 32.3173 13.3993 32.036 13.3993H30.9382C30.272 13.3993 29.8723 12.6567 30.2424 12.0991L31.1256 10.7668C31.2811 10.5324 31.5426 10.3918 31.8239 10.3918H32.9217C33.5879 10.3918 33.9851 11.1369 33.6175 11.692ZM34.9547 8.99785H33.8568C33.1907 8.99785 32.791 8.25523 33.1611 7.69765L34.0443 6.36538C34.1997 6.131 34.4613 5.99037 34.7425 5.99037H35.8429C36.509 5.99037 36.9087 6.73299 36.5386 7.29057L35.6529 8.62284C35.4975 8.85722 35.236 8.99785 34.9547 8.99785ZM35.944 17.3517C35.8873 17.3517 35.8527 17.2875 35.8848 17.2406L43.7131 5.32424L49.4567 17.3591L35.944 17.3517Z" fill="#1CB3B0"/>
<path d="M23.8376 3.1679H23.09C22.8458 3.1679 22.6953 2.90145 22.8211 2.69421L24.2299 0.352871C24.3631 0.130826 24.6024 -0.00240297 24.8615 6.41955e-05L25.5424 0.00746539C25.799 0.00993255 25.9569 0.291191 25.8261 0.510769L24.4642 2.81263C24.3335 3.03221 24.0942 3.1679 23.8376 3.1679Z" fill="#1CB3B0"/>
<path d="M37.782 3.19506H37.0345C36.7902 3.19506 36.6397 2.9286 36.7656 2.72136L38.1743 0.380024C38.3075 0.157979 38.5469 0.02475 38.8059 0.0272172L39.4622 0.0346184C39.7311 0.0370856 39.8939 0.328212 39.7582 0.560126L38.4087 2.83978C38.2755 3.05936 38.0386 3.19506 37.782 3.19506Z" fill="#1CB3B0"/>
</svg>
