<svg width="15" height="15" viewBox="0 0 15 15" fill="none" xmlns="http://www.w3.org/2000/svg">
<path d="M13.3337 5.71485C13.0539 5.71805 12.7786 5.7851 12.5287 5.91089C12.5914 5.60294 12.6233 5.28951 12.6238 4.97524C12.6238 4.91616 12.6003 4.8595 12.5585 4.81772C12.5167 4.77594 12.4601 4.75247 12.401 4.75247H3.4901C3.43102 4.75247 3.37436 4.77594 3.33258 4.81772C3.2908 4.8595 3.26733 4.91616 3.26733 4.97524C3.26322 6.09806 3.66695 7.18417 4.40347 8.03168C3.93149 8.11712 3.48789 8.3177 3.11199 8.61562C2.73608 8.91355 2.4395 9.29961 2.24852 9.7396C1.98118 9.89003 1.74974 10.0968 1.57024 10.3455C1.39073 10.5943 1.26744 10.8791 1.20891 11.1802C1.20401 11.2143 1.20709 11.2491 1.21791 11.2818C1.22874 11.3146 1.24701 11.3443 1.27129 11.3688L2.40446 12.502C2.43842 12.5361 2.48254 12.5583 2.5302 12.5653C2.57786 12.5723 2.6265 12.5636 2.66881 12.5406L4.13763 11.7446L5.6198 11.4356H7.57426L9.03862 11.7416L10.5134 12.5421C10.5557 12.5651 10.6043 12.5738 10.652 12.5668C10.6996 12.5598 10.7438 12.5376 10.7777 12.5035L11.9109 11.3703C11.9352 11.3458 11.9534 11.3161 11.9643 11.2833C11.9751 11.2506 11.9782 11.2158 11.9733 11.1817C11.9152 10.8835 11.7937 10.6013 11.6168 10.3542C11.44 10.1072 11.2121 9.9011 10.9485 9.75C10.8184 9.45369 10.6419 9.17998 10.4257 8.93911C10.5593 8.85654 10.6887 8.76732 10.8134 8.67178L10.8861 8.61386C11.3317 8.2797 11.8218 8.38217 12.3861 8.50247C12.6941 8.57889 13.0092 8.6227 13.3262 8.63317C13.7122 8.63317 14.0824 8.47982 14.3554 8.20688C14.6283 7.93393 14.7817 7.56373 14.7817 7.17772C14.7817 6.79171 14.6283 6.42151 14.3554 6.14856C14.0824 5.87561 13.7122 5.72227 13.3262 5.72227L13.3337 5.71485ZM12.1782 5.19802C12.1541 5.67083 12.0507 6.13623 11.8723 6.57475C11.522 7.43356 10.8954 8.15109 10.0916 8.61386C9.62737 8.25286 9.07003 8.03137 8.48466 7.97524C8.27267 7.66628 7.99 7.41239 7.66013 7.23467C7.33027 7.05695 6.96275 6.96054 6.58812 6.95346C6.24678 6.95419 5.91008 7.03267 5.6036 7.18295C5.29711 7.33323 5.0289 7.55137 4.81931 7.82079C4.15559 7.10253 3.76415 6.17464 3.71287 5.19802H12.1782ZM7.42574 10.9901H5.77277L5.08218 8.22623C5.24504 7.97485 5.46806 7.76808 5.73103 7.62467C5.99399 7.48126 6.28859 7.40573 6.58812 7.40495C6.88927 7.41369 7.18419 7.49279 7.44929 7.63592C7.7144 7.77904 7.94233 7.98222 8.11485 8.2292L7.42574 10.9901ZM4.67376 8.43416L5.32574 11.0406L4.16881 11.2871L2.70297 9.81831C2.98664 9.24208 3.55248 8.59604 4.67376 8.43416ZM2.59456 12.0698L1.67228 11.1386C1.78647 10.7287 2.05183 10.3774 2.41485 10.1554L3.71287 11.4653L2.59456 12.0698ZM11.5054 11.1401L10.5757 12.0698L9.46485 11.4683L10.7718 10.1614C11.1331 10.3818 11.3974 10.731 11.5114 11.1386L11.5054 11.1401ZM9.02673 11.2871L7.87129 11.0421L8.52327 8.43564C9.64456 8.59752 10.2104 9.24208 10.4926 9.81831L9.02673 11.2871ZM13.3337 8.18465C13.0476 8.17361 12.7635 8.1333 12.4856 8.06435C12.1858 7.98883 11.8784 7.94699 11.5693 7.9396C11.8636 7.58128 12.1024 7.18077 12.2777 6.75148C12.4262 6.42178 12.8837 6.15742 13.3351 6.15742C13.603 6.15742 13.8599 6.26382 14.0493 6.45322C14.2387 6.64261 14.345 6.89948 14.345 7.16732C14.345 7.43517 14.2387 7.69204 14.0493 7.88143C13.8599 8.07082 13.603 8.17722 13.3351 8.17722L13.3337 8.18465Z" fill="#1CB3B0"/>
<path d="M7.54456 1.58167C7.22376 1.84306 6.82574 2.17573 6.82574 2.86484C6.83169 3.799 7.72277 4.21484 8.20099 4.30692H8.24258C8.30166 4.31243 8.36051 4.29425 8.40619 4.25637C8.45187 4.21849 8.48063 4.16402 8.48614 4.10494C8.49166 4.04586 8.47347 3.987 8.43559 3.94132C8.39772 3.89565 8.34324 3.86689 8.28416 3.86137C8.24258 3.86137 7.27723 3.66236 7.27723 2.86484C7.27723 2.37623 7.52822 2.16979 7.82525 1.93068C8.09109 1.71385 8.39258 1.46731 8.39258 1.0188C8.39803 0.890553 8.37682 0.76257 8.3303 0.642936C8.28378 0.523302 8.21294 0.414617 8.12228 0.32375C7.89957 0.127235 7.61133 0.021264 7.31436 0.0267205C7.25528 0.0277052 7.199 0.0521202 7.15792 0.0945944C7.11684 0.137069 7.09431 0.194123 7.0953 0.253206C7.09628 0.312288 7.1207 0.36856 7.16317 0.409642C7.20565 0.450723 7.2627 0.47325 7.32178 0.472265C7.49892 0.471757 7.67087 0.532045 7.80891 0.643057C7.85579 0.692855 7.89186 0.751809 7.91486 0.816215C7.93787 0.880621 7.9473 0.949088 7.94258 1.01731C7.94703 1.24157 7.80149 1.37226 7.54456 1.58167Z" fill="#1CB3B0"/>
</svg>
