<svg width="17" height="17" viewBox="0 0 17 17" fill="none" xmlns="http://www.w3.org/2000/svg">
<g clip-path="url(#clip0_1_510)">
<path d="M14.4978 8.95423H8.04578V2.5022C8.04578 2.43175 8.0178 2.36419 7.96798 2.31437C7.91817 2.26456 7.8506 2.23657 7.78016 2.23657C5.92872 2.23868 4.15372 2.9751 2.84456 4.28426C1.5354 5.59342 0.798984 7.36842 0.796875 9.21985C1.17938 18.4849 14.3809 18.4822 14.7634 9.21985C14.7634 9.14941 14.7355 9.08184 14.6856 9.03203C14.6358 8.98221 14.5683 8.95423 14.4978 8.95423ZM7.51453 9.21985C7.51453 9.2903 7.54252 9.35786 7.59233 9.40768C7.64215 9.45749 7.70971 9.48548 7.78016 9.48548H13.3928C13.3184 10.1124 13.0103 10.702 12.7686 11.2838C12.487 11.9584 12.2373 12.7181 11.7592 13.1989C11.2811 13.6797 10.5188 13.9294 9.84406 14.2083C9.16938 14.4872 8.51594 14.8484 7.78016 14.8484C7.04438 14.8484 6.375 14.4819 5.71625 14.2083C5.0575 13.9347 4.28188 13.677 3.80109 13.1989C3.32031 12.7208 3.07063 11.9584 2.79172 11.2838C2.51281 10.6091 2.15156 9.95563 2.15156 9.21985C2.15156 8.48407 2.51813 7.81735 2.79172 7.15595C3.06531 6.49454 3.32297 5.72157 3.80109 5.24079C4.27922 4.76001 5.04688 4.51563 5.71625 4.23142C6.29797 3.9897 6.88766 3.68157 7.51453 3.6072V9.21985ZM7.78016 15.6719C-0.621562 15.3452 -0.842031 3.43188 7.51453 2.77313V3.07329C6.78406 3.14235 6.15984 3.47173 5.51172 3.74267C4.78391 4.04282 4.00297 4.28985 3.42391 4.8636C2.84484 5.43735 2.60312 6.22095 2.30297 6.95142C1.55125 8.50001 1.34406 9.5386 2.15156 11.135C2.53406 11.9691 2.75719 12.9014 3.42391 13.5761C4.09063 14.2508 5.03094 14.4659 5.865 14.8511C7.45875 15.648 8.50266 15.4514 10.0486 14.697C10.7764 14.3969 11.5573 14.1499 12.1364 13.5761C12.7155 13.0024 12.9572 12.2161 13.2573 11.4883C13.523 10.8402 13.8577 10.2159 13.9267 9.48548H14.2269C14.1564 11.1486 13.4466 12.7204 12.2455 13.8729C11.0444 15.0255 9.44479 15.67 7.78016 15.6719Z" fill="#1CB3B0"/>
<path d="M9.21985 0.796875C9.1494 0.796875 9.08184 0.82486 9.03202 0.874675C8.98221 0.924489 8.95422 0.992052 8.95422 1.0625V7.78016C8.95422 7.8506 8.98221 7.91817 9.03202 7.96798C9.08184 8.0178 9.1494 8.04578 9.21985 8.04578H15.9375C16.008 8.04578 16.0755 8.0178 16.1253 7.96798C16.1751 7.91817 16.2031 7.8506 16.2031 7.78016C16.201 5.92872 15.4646 4.15372 14.1554 2.84456C12.8463 1.5354 11.0713 0.798984 9.21985 0.796875ZM15.6719 7.51453H15.3664C15.2973 6.78406 14.968 6.15984 14.697 5.51172C14.3969 4.78391 14.1498 4.00297 13.5761 3.42391C13.0023 2.84484 12.2188 2.60312 11.4883 2.30297C10.8402 2.03734 10.2159 1.70266 9.48547 1.63359V1.32812C11.1051 1.39415 12.6405 2.06713 13.7867 3.2133C14.9329 4.35948 15.6059 5.89494 15.6719 7.51453ZM9.48547 2.1675C10.1123 2.24187 10.702 2.55 11.2838 2.79172C11.9584 3.07328 12.7181 3.32297 13.1989 3.80109C13.6797 4.27922 13.9294 5.04156 14.2083 5.71625C14.45 6.29797 14.7581 6.88766 14.8325 7.51453H9.48547V2.1675Z" fill="#1CB3B0"/>
<path d="M4.8158 6.1253C4.82834 6.3567 4.9291 6.57449 5.09734 6.73386C5.26558 6.89323 5.48851 6.98205 5.72025 6.98205C5.95199 6.98205 6.17491 6.89323 6.34316 6.73386C6.5114 6.57449 6.61216 6.3567 6.6247 6.1253C6.61216 5.8939 6.5114 5.67611 6.34316 5.51674C6.17491 5.35738 5.95199 5.26855 5.72025 5.26855C5.48851 5.26855 5.26558 5.35738 5.09734 5.51674C4.9291 5.67611 4.82834 5.8939 4.8158 6.1253ZM6.09345 6.1253C6.08555 6.21885 6.04281 6.30601 5.9737 6.36954C5.90458 6.43307 5.81413 6.46832 5.72025 6.46832C5.62637 6.46832 5.53592 6.43307 5.4668 6.36954C5.39769 6.30601 5.35494 6.21885 5.34705 6.1253C5.35494 6.03176 5.39769 5.94459 5.4668 5.88107C5.53592 5.81754 5.62637 5.78229 5.72025 5.78229C5.81413 5.78229 5.90458 5.81754 5.9737 5.88107C6.04281 5.94459 6.08555 6.03176 6.09345 6.1253Z" fill="#1CB3B0"/>
<path d="M4.2686 8.49999C4.2686 8.42954 4.24061 8.36198 4.1908 8.31217C4.14098 8.26235 4.07342 8.23437 4.00297 8.23437C3.97902 8.23437 3.95605 8.22485 3.93911 8.20791C3.92217 8.19098 3.91266 8.16801 3.91266 8.14405C3.91266 8.1201 3.92217 8.09713 3.93911 8.08019C3.95605 8.06326 3.97902 8.05374 4.00297 8.05374C4.07342 8.05374 4.14098 8.02576 4.1908 7.97594C4.24061 7.92613 4.2686 7.85856 4.2686 7.78812C4.2686 7.71767 4.24061 7.65011 4.1908 7.60029C4.14098 7.55048 4.07342 7.52249 4.00297 7.52249C3.83812 7.52249 3.68003 7.58798 3.56346 7.70454C3.44689 7.82111 3.38141 7.97921 3.38141 8.14405C3.38141 8.3089 3.44689 8.467 3.56346 8.58356C3.68003 8.70013 3.83812 8.76562 4.00297 8.76562C4.07342 8.76562 4.14098 8.73763 4.1908 8.68782C4.24061 8.638 4.2686 8.57044 4.2686 8.49999Z" fill="#1CB3B0"/>
<path d="M6.54233 9.91047C6.54339 9.83027 6.5285 9.75066 6.49854 9.67626C6.46858 9.60186 6.42413 9.53415 6.36779 9.47707C6.31145 9.41998 6.24433 9.37466 6.17032 9.34373C6.09632 9.31279 6.01691 9.29687 5.93671 9.29688C5.86626 9.29688 5.7987 9.32486 5.74888 9.37467C5.69907 9.42449 5.67108 9.49205 5.67108 9.5625C5.67108 9.63295 5.69907 9.70051 5.74888 9.75033C5.7987 9.80014 5.86626 9.82812 5.93671 9.82812C5.9537 9.83138 5.96902 9.84045 5.98004 9.85379C5.99106 9.86712 5.99709 9.88387 5.99709 9.90117C5.99709 9.91847 5.99106 9.93523 5.98004 9.94856C5.96902 9.96189 5.9537 9.97096 5.93671 9.97422C5.86626 9.97422 5.7987 10.0022 5.74888 10.052C5.69907 10.1018 5.67108 10.1694 5.67108 10.2398C5.67108 10.3103 5.69907 10.3779 5.74888 10.4277C5.7987 10.4775 5.86626 10.5055 5.93671 10.5055C6.0955 10.5055 6.24796 10.4431 6.36123 10.3319C6.47451 10.2206 6.53955 10.0692 6.54233 9.91047Z" fill="#1CB3B0"/>
<path d="M4.87954 10.6409C4.6217 10.6409 4.37442 10.7434 4.1921 10.9257C4.00978 11.108 3.90735 11.3553 3.90735 11.6131C3.90735 11.871 4.00978 12.1182 4.1921 12.3006C4.37442 12.4829 4.6217 12.5853 4.87954 12.5853C5.13738 12.5853 5.38466 12.4829 5.56698 12.3006C5.7493 12.1182 5.85172 11.871 5.85172 11.6131C5.85172 11.3553 5.7493 11.108 5.56698 10.9257C5.38466 10.7434 5.13738 10.6409 4.87954 10.6409ZM4.87954 12.0541C4.76259 12.0541 4.65044 12.0076 4.56775 11.9249C4.48505 11.8422 4.4386 11.7301 4.4386 11.6131C4.4386 11.4962 4.48505 11.384 4.56775 11.3013C4.65044 11.2186 4.76259 11.1722 4.87954 11.1722C4.99648 11.1722 5.10863 11.2186 5.19133 11.3013C5.27402 11.384 5.32047 11.4962 5.32047 11.6131C5.32047 11.7301 5.27402 11.8422 5.19133 11.9249C5.10863 12.0076 4.99648 12.0541 4.87954 12.0541Z" fill="#1CB3B0"/>
<path d="M9.21985 12.7128C9.1494 12.7128 9.08184 12.7408 9.03202 12.7906C8.98221 12.8404 8.95422 12.908 8.95422 12.9784C8.95422 13.0489 8.98221 13.1165 9.03202 13.1663C9.08184 13.2161 9.1494 13.2441 9.21985 13.2441C9.37733 13.2338 9.52499 13.1639 9.63288 13.0487C9.74077 12.9336 9.8008 12.7817 9.8008 12.6238C9.8008 12.466 9.74077 12.3141 9.63288 12.1989C9.52499 12.0837 9.37733 12.0139 9.21985 12.0036C9.1494 12.0036 9.08184 12.0316 9.03202 12.0814C8.98221 12.1312 8.95422 12.1988 8.95422 12.2692C8.95422 12.3397 8.98221 12.4072 9.03202 12.4571C9.08184 12.5069 9.1494 12.5349 9.21985 12.5349C9.24081 12.5385 9.25982 12.5494 9.27352 12.5657C9.28722 12.582 9.29473 12.6026 9.29473 12.6238C9.29473 12.6451 9.28722 12.6657 9.27352 12.682C9.25982 12.6983 9.24081 12.7092 9.21985 12.7128Z" fill="#1CB3B0"/>
<path d="M10.6701 11.3342C10.8511 11.3231 11.021 11.2435 11.1452 11.1114C11.2694 10.9794 11.3386 10.8049 11.3386 10.6237C11.3386 10.4424 11.2694 10.2679 11.1452 10.1359C11.021 10.0039 10.8511 9.92418 10.6701 9.91312C10.4892 9.92418 10.3193 10.0039 10.1951 10.1359C10.0709 10.2679 10.0017 10.4424 10.0017 10.6237C10.0017 10.8049 10.0709 10.9794 10.1951 11.1114C10.3193 11.2435 10.4892 11.3231 10.6701 11.3342ZM10.6701 10.4444C10.7139 10.4497 10.7543 10.4709 10.7835 10.5039C10.8128 10.537 10.8289 10.5795 10.8289 10.6237C10.8289 10.6678 10.8128 10.7104 10.7835 10.7434C10.7543 10.7764 10.7139 10.7976 10.6701 10.803C10.6264 10.7976 10.586 10.7764 10.5568 10.7434C10.5275 10.7104 10.5114 10.6678 10.5114 10.6237C10.5114 10.5795 10.5275 10.537 10.5568 10.5039C10.586 10.4709 10.6264 10.4497 10.6701 10.4444Z" fill="#1CB3B0"/>
<path d="M6.49188 12.6225C6.49188 12.552 6.4639 12.4845 6.41408 12.4347C6.36427 12.3849 6.29671 12.3569 6.22626 12.3569C6.15581 12.3569 6.08825 12.3849 6.03843 12.4347C5.98862 12.4845 5.96063 12.552 5.96063 12.6225C5.96063 12.8338 6.04459 13.0365 6.19403 13.186C6.34347 13.3354 6.54616 13.4194 6.75751 13.4194C6.96885 13.4194 7.17154 13.3354 7.32098 13.186C7.47043 13.0365 7.55438 12.8338 7.55438 12.6225C7.55438 12.552 7.5264 12.4845 7.47658 12.4347C7.42677 12.3849 7.35921 12.3569 7.28876 12.3569C7.21831 12.3569 7.15075 12.3849 7.10093 12.4347C7.05112 12.4845 7.02313 12.552 7.02313 12.6225C7.02313 12.6929 6.99515 12.7605 6.94533 12.8103C6.89552 12.8601 6.82796 12.8881 6.75751 12.8881C6.68706 12.8881 6.6195 12.8601 6.56968 12.8103C6.51987 12.7605 6.49188 12.6929 6.49188 12.6225Z" fill="#1CB3B0"/>
<path d="M12.5773 5.01233C12.3605 5.02447 12.1565 5.11917 12.0072 5.27699C11.858 5.43482 11.7748 5.64379 11.7748 5.861C11.7748 6.07821 11.858 6.28718 12.0072 6.44501C12.1565 6.60283 12.3605 6.69753 12.5773 6.70967C12.7942 6.69753 12.9982 6.60283 13.1475 6.44501C13.2967 6.28718 13.3798 6.07821 13.3798 5.861C13.3798 5.64379 13.2967 5.43482 13.1475 5.27699C12.9982 5.11917 12.7942 5.02447 12.5773 5.01233ZM12.5773 6.17842C12.4982 6.17117 12.4246 6.1346 12.371 6.07587C12.3174 6.01714 12.2877 5.94051 12.2877 5.861C12.2877 5.7815 12.3174 5.70486 12.371 5.64613C12.4246 5.58741 12.4982 5.55083 12.5773 5.54358C12.6565 5.55083 12.7301 5.58741 12.7837 5.64613C12.8373 5.70486 12.867 5.7815 12.867 5.861C12.867 5.94051 12.8373 6.01714 12.7837 6.07587C12.7301 6.1346 12.6565 6.17117 12.5773 6.17842Z" fill="#1CB3B0"/>
<path d="M11.0473 3.1875C10.9769 3.1875 10.9093 3.21549 10.8595 3.2653C10.8097 3.31511 10.7817 3.38268 10.7817 3.45313C10.7841 3.46757 10.7833 3.48235 10.7794 3.49646C10.7755 3.51056 10.7685 3.52364 10.759 3.53479C10.7496 3.54595 10.7378 3.55491 10.7245 3.56105C10.7112 3.5672 10.6968 3.57038 10.6821 3.57038C10.6675 3.57038 10.653 3.5672 10.6397 3.56105C10.6265 3.55491 10.6147 3.54595 10.6052 3.53479C10.5957 3.52364 10.5888 3.51056 10.5849 3.49646C10.5809 3.48235 10.5801 3.46757 10.5825 3.45313C10.5825 3.38268 10.5545 3.31511 10.5047 3.2653C10.4549 3.21549 10.3873 3.1875 10.3169 3.1875C10.2464 3.1875 10.1789 3.21549 10.1291 3.2653C10.0792 3.31511 10.0513 3.38268 10.0513 3.45313C10.0457 3.53941 10.0578 3.62593 10.087 3.70734C10.1161 3.78874 10.1617 3.86329 10.2208 3.92638C10.28 3.98948 10.3514 4.03977 10.4308 4.07415C10.5101 4.10853 10.5956 4.12627 10.6821 4.12627C10.7686 4.12627 10.8541 4.10853 10.9335 4.07415C11.0128 4.03977 11.0843 3.98948 11.1434 3.92638C11.2025 3.86329 11.2481 3.78874 11.2772 3.70734C11.3064 3.62593 11.3186 3.53941 11.313 3.45313C11.313 3.38268 11.285 3.31511 11.2352 3.2653C11.1854 3.21549 11.1178 3.1875 11.0473 3.1875Z" fill="#1CB3B0"/>
<path d="M10.2266 4.84766C10.1561 4.84766 10.0886 4.87564 10.0387 4.92546C9.98892 4.97527 9.96094 5.04283 9.96094 5.11328C9.96094 5.18373 9.98892 5.25129 10.0387 5.30111C10.0886 5.35092 10.1561 5.37891 10.2266 5.37891C10.286 5.38516 10.3409 5.41318 10.3809 5.45757C10.4209 5.50196 10.443 5.55957 10.443 5.6193C10.443 5.67902 10.4209 5.73664 10.3809 5.78102C10.3409 5.82541 10.286 5.85343 10.2266 5.85969C10.1561 5.85969 10.0886 5.88767 10.0387 5.93749C9.98892 5.9873 9.96094 6.05486 9.96094 6.12531C9.96094 6.19576 9.98892 6.26332 10.0387 6.31314C10.0886 6.36295 10.1561 6.39094 10.2266 6.39094C10.4234 6.37938 10.6084 6.29306 10.7436 6.14961C10.8789 6.00617 10.9542 5.81646 10.9542 5.6193C10.9542 5.42213 10.8789 5.23242 10.7436 5.08898C10.6084 4.94554 10.4234 4.85921 10.2266 4.84766Z" fill="#1CB3B0"/>
</g>
<defs>
<clipPath id="clip0_1_510">
<rect width="17" height="17" fill="white"/>
</clipPath>
</defs>
</svg>
