<svg width="16" height="15" viewBox="0 0 16 15" fill="none" xmlns="http://www.w3.org/2000/svg">
<path d="M11.1365 1.8041C12.5191 1.8041 13.6571 2.85005 13.775 4.17856H14.1321C14.0178 2.71472 12.8122 1.54638 11.3146 1.46V1.08337C11.3146 0.986856 11.2348 0.908524 11.1365 0.908524C11.0383 0.908524 10.9585 0.986856 10.9585 1.08337V1.46C9.46092 1.54638 8.25529 2.71472 8.141 4.17856H8.49813C8.61563 2.85005 9.7536 1.8041 11.1365 1.8041Z" fill="#1CB3B0"/>
<path d="M13.3456 5.12869H8.9546C8.85633 5.12869 8.77657 5.20703 8.77657 5.30354C8.77657 5.40006 8.85633 5.47839 8.9546 5.47839H13.3456C13.4438 5.47839 13.5236 5.40006 13.5236 5.30354C13.5236 5.20703 13.4438 5.12869 13.3456 5.12869Z" fill="#1CB3B0"/>
<path d="M15.2259 7.27829C15.2259 7.10274 15.0807 6.95972 14.9016 6.95972H14.4326V4.5321H14.5455C14.6438 4.5321 14.7235 4.45377 14.7235 4.35725C14.7235 4.26074 14.6438 4.18241 14.5455 4.18241H7.72726C7.62898 4.18241 7.54923 4.26074 7.54923 4.35725C7.54923 4.45377 7.62898 4.5321 7.72726 4.5321H7.85829V6.96007H5.64679C6.17127 6.89362 6.57789 6.45265 6.57789 5.92006V5.74521H6.24248C6.45932 5.55323 6.59605 5.27522 6.59605 4.96643V4.79158H6.26064C6.47748 4.5996 6.61421 4.32159 6.61421 4.0128V3.83795H1.89461V4.0128C1.89461 4.32159 2.03133 4.5996 2.24818 4.79158H1.87645V4.96643C1.87645 5.27522 2.01318 5.55323 2.23002 5.74521H1.85829V5.92006C1.85829 6.453 2.26491 6.89397 2.78939 6.96007H1.4862C1.30746 6.96007 1.16183 7.10274 1.16183 7.27864V8.80228C1.16183 8.97783 1.3071 9.12086 1.4862 9.12086H14.7983V13.6523C14.0253 13.3221 13.2751 13.2032 12.5636 13.3001C12.0876 13.3648 11.7864 13.5033 11.5207 13.6257C11.2362 13.7568 10.9906 13.8698 10.5583 13.8799C10.0566 13.8915 9.79099 13.7575 9.48336 13.6023C9.17714 13.4477 8.83034 13.2728 8.24568 13.2728C8.24212 13.2728 8.23892 13.2728 8.23536 13.2728C7.63717 13.2749 7.31743 13.4515 7.00872 13.6222C6.73278 13.7747 6.47178 13.9187 5.97508 13.9338C5.47267 13.9488 5.16824 13.8198 4.81538 13.6708C4.48211 13.5295 4.10397 13.3697 3.52466 13.3274C2.8866 13.2805 2.23678 13.3917 1.58911 13.6572V9.89264C1.58911 9.77689 1.49332 9.68283 1.37547 9.68283C1.25761 9.68283 1.16183 9.77689 1.16183 9.89264V13.982C1.16183 13.9838 1.16219 13.9852 1.16219 13.9869C1.16219 13.9911 1.16254 13.9957 1.1629 13.9999C1.16326 14.0027 1.16361 14.0055 1.16397 14.0086C1.16432 14.0125 1.16504 14.0163 1.16575 14.0201C1.16646 14.0236 1.16717 14.0268 1.16788 14.0303C1.1686 14.0334 1.16931 14.0366 1.17038 14.0397C1.17144 14.0436 1.17287 14.0474 1.17394 14.0513C1.17501 14.0541 1.17572 14.0565 1.17679 14.059C1.17857 14.0632 1.18035 14.067 1.18213 14.0712C1.18284 14.0726 1.18319 14.074 1.18391 14.0754C1.18426 14.0764 1.18497 14.0771 1.18533 14.0782C1.18747 14.082 1.1896 14.0855 1.19174 14.0894C1.19316 14.0918 1.19494 14.0943 1.19637 14.0967C1.19851 14.0995 1.20029 14.1027 1.20242 14.1055C1.20456 14.1083 1.20669 14.1111 1.20883 14.1139C1.21061 14.116 1.21275 14.1181 1.21453 14.1205C1.21738 14.1237 1.21987 14.1265 1.22272 14.1296C1.2245 14.1313 1.22628 14.1331 1.22841 14.1348C1.23162 14.1376 1.23482 14.1408 1.23803 14.1432C1.24016 14.145 1.2423 14.1464 1.24444 14.1481C1.24764 14.1506 1.25085 14.153 1.25405 14.1551C1.2569 14.1569 1.25975 14.1586 1.2626 14.1604C1.26544 14.1621 1.26829 14.1639 1.27114 14.1656C1.2747 14.1674 1.27826 14.1691 1.28182 14.1709C1.28432 14.1719 1.28681 14.1733 1.2893 14.1744C1.29322 14.1761 1.29713 14.1775 1.30141 14.1789C1.3039 14.18 1.30639 14.1807 1.30853 14.1814C1.31245 14.1828 1.31636 14.1838 1.32028 14.1845C1.32313 14.1852 1.32598 14.1859 1.32882 14.1866C1.33238 14.1873 1.33595 14.188 1.33915 14.1883C1.34271 14.189 1.34627 14.1894 1.34983 14.1901C1.35268 14.1904 1.35553 14.1908 1.35838 14.1908C1.36265 14.1911 1.36728 14.1915 1.37155 14.1915C1.37262 14.1915 1.37369 14.1915 1.37476 14.1915C1.37618 14.1915 1.37796 14.1911 1.37938 14.1911C1.38401 14.1911 1.38829 14.1908 1.39292 14.1904C1.39576 14.1901 1.39861 14.1897 1.4011 14.1894C1.40502 14.189 1.40929 14.1883 1.41321 14.1876C1.41642 14.1869 1.41998 14.1863 1.42318 14.1856C1.42638 14.1849 1.42995 14.1838 1.43315 14.1831C1.43707 14.1821 1.44063 14.1807 1.44454 14.1796C1.44739 14.1786 1.44988 14.1779 1.45273 14.1768C1.45701 14.1751 1.46092 14.1733 1.4652 14.1716C1.46662 14.1709 1.46804 14.1705 1.46947 14.1698C2.14955 13.8393 2.82998 13.696 3.49226 13.7446C4.00036 13.7816 4.32829 13.9208 4.64554 14.0551C4.9927 14.202 5.3509 14.3538 5.89639 14.3538C5.92594 14.3538 5.95656 14.3534 5.98718 14.3524C6.58893 14.3342 6.92256 14.1499 7.21702 13.9873C7.50223 13.8296 7.74862 13.6935 8.23571 13.6918C8.23856 13.6918 8.24177 13.6918 8.24462 13.6918C8.72601 13.6918 8.9984 13.8292 9.28681 13.975C9.60086 14.1334 9.95692 14.3139 10.5672 14.2989C11.0892 14.2866 11.4 14.1436 11.7009 14.0051C11.9505 13.8901 12.209 13.7712 12.621 13.7152C13.3392 13.6176 14.1111 13.7701 14.9144 14.1691C14.9158 14.1698 14.9176 14.1705 14.9194 14.1712C14.9233 14.173 14.9275 14.1751 14.9318 14.1765C14.9347 14.1775 14.9375 14.1786 14.9404 14.1796C14.9439 14.181 14.9478 14.1821 14.9514 14.1831C14.955 14.1842 14.9585 14.1849 14.9621 14.1859C14.9649 14.1866 14.9681 14.1873 14.971 14.188C14.9756 14.1887 14.9799 14.1894 14.9845 14.1901C14.987 14.1904 14.9891 14.1908 14.9916 14.1908C14.997 14.1911 15.002 14.1915 15.0073 14.1915C15.0087 14.1915 15.0098 14.1918 15.0112 14.1918C15.0119 14.1918 15.0123 14.1918 15.013 14.1918C15.0183 14.1918 15.0233 14.1915 15.0287 14.1911C15.0308 14.1911 15.0329 14.1908 15.0347 14.1908C15.0393 14.1904 15.0436 14.1894 15.0482 14.1887C15.0507 14.1883 15.0536 14.188 15.0561 14.1873C15.06 14.1866 15.0636 14.1856 15.0671 14.1845C15.0703 14.1838 15.0732 14.1831 15.0764 14.1821C15.0796 14.181 15.0831 14.1796 15.0863 14.1786C15.0896 14.1775 15.0928 14.1765 15.0956 14.1751C15.0992 14.1737 15.1024 14.1719 15.1059 14.1702C15.1084 14.1688 15.1113 14.1677 15.1138 14.1663C15.118 14.1642 15.122 14.1618 15.1259 14.159C15.1276 14.1579 15.1294 14.1569 15.1312 14.1558C15.1355 14.153 15.1398 14.1495 15.144 14.1464C15.1451 14.1453 15.1465 14.1446 15.1476 14.1439C15.1515 14.1408 15.1554 14.1369 15.1593 14.1334C15.1604 14.1324 15.1618 14.1313 15.1629 14.1303C15.1661 14.1272 15.1693 14.1237 15.1722 14.1202C15.1736 14.1184 15.1754 14.1167 15.1768 14.1149C15.1793 14.1121 15.1814 14.109 15.1836 14.1062C15.1857 14.1034 15.1878 14.1006 15.1896 14.0978C15.191 14.0953 15.1925 14.0929 15.1942 14.0904C15.1964 14.0866 15.1989 14.0831 15.2006 14.0792C15.201 14.0785 15.2014 14.0778 15.2017 14.0771C15.2024 14.0757 15.2031 14.074 15.2038 14.0726C15.206 14.0684 15.2078 14.0646 15.2095 14.0604C15.2106 14.0579 15.2117 14.0551 15.2124 14.0527C15.2138 14.0488 15.2152 14.045 15.2163 14.0411C15.2174 14.038 15.2181 14.0348 15.2188 14.0313C15.2195 14.0282 15.2202 14.0247 15.2209 14.0212C15.2217 14.0173 15.2224 14.0135 15.2227 14.0093C15.2231 14.0065 15.2234 14.0037 15.2238 14.0009C15.2241 13.9964 15.2245 13.9922 15.2245 13.9876C15.2245 13.9859 15.2249 13.9841 15.2249 13.9824V8.91069C15.2249 8.8939 15.2227 8.87782 15.2188 8.86208C15.2227 8.8425 15.2249 8.82256 15.2249 8.80193V7.27829H15.2259ZM6.23571 4.18695C6.15631 4.48839 5.87752 4.7115 5.54602 4.7115H2.96279C2.63165 4.7115 2.3525 4.48839 2.2731 4.18695H6.23571ZM2.2553 5.14058H6.21791C6.13851 5.44202 5.85971 5.66513 5.52822 5.66513H2.94463C2.6135 5.66513 2.33434 5.44202 2.2553 5.14058ZM2.23678 6.09456H6.1994C6.11999 6.396 5.8412 6.61911 5.5097 6.61911H2.92647C2.59534 6.61911 2.31618 6.39565 2.23678 6.09456ZM8.21435 4.5321H14.0766V6.96007H8.21435V4.5321ZM1.58946 7.37936H14.7986V8.70087H1.58946V7.37936Z" fill="#1CB3B0"/>
</svg>
