<svg width="22" height="22" viewBox="0 0 22 22" fill="none" xmlns="http://www.w3.org/2000/svg">
<g clip-path="url(#clip0_1_500)">
<path d="M7.44463 18.556C1.6238 13.8188 4.41963 8.36131 4.42618 8.34495L4.66189 8.45953L4.42618 8.34167C4.47201 8.24673 4.56695 8.19435 4.66517 8.19762H9.45802H14.2542C14.3622 8.19762 14.4571 8.26637 14.4964 8.36131C14.6601 8.69197 17.1187 13.9759 11.4518 18.5723L11.2881 18.3693L11.4518 18.5723C11.4027 18.6116 11.3437 18.6313 11.2881 18.6313H9.45802H7.62796C7.55594 18.6313 7.49374 18.6018 7.44463 18.556ZM4.82886 8.72143C4.45564 9.57917 2.83511 14.0872 7.7229 18.1074H9.4613H11.1997C16.0875 14.0872 14.4637 9.58245 14.0937 8.72143H9.46457H4.8354H4.82886Z" fill="#1CB3B0"/>
<path d="M14.7452 8.95062C14.6012 8.96699 14.4997 9.09794 14.516 9.24199C14.5324 9.38604 14.6634 9.48753 14.8074 9.47116C14.8172 9.47116 17.9143 9.06848 17.7178 11.4747C17.5181 13.9104 14.7485 13.3572 14.7419 13.3539C14.6012 13.3277 14.4637 13.4194 14.4375 13.5634C14.4113 13.7042 14.5029 13.8417 14.647 13.8679C14.6568 13.8712 17.9961 14.539 18.2416 11.514C18.4904 8.46283 14.7583 8.94735 14.7452 8.95062Z" fill="#1CB3B0"/>
<path d="M6.91427 4.76997C6.85206 4.63902 6.69492 4.58664 6.56724 4.64556C6.43629 4.70777 6.38391 4.86491 6.44284 4.99259C6.51159 5.13664 6.57706 5.25777 6.64254 5.3789C6.92409 5.89943 7.16962 6.35449 6.62617 6.8783C6.52141 6.97979 6.51813 7.14348 6.61962 7.24824C6.72111 7.35301 6.8848 7.35628 6.98956 7.25479C7.82111 6.45271 7.48718 5.83723 7.10415 5.13009C7.03867 5.00568 6.96992 4.88128 6.91427 4.7667V4.76997Z" fill="#1CB3B0"/>
<path d="M9.63482 3.07085C9.73958 2.97263 9.74613 2.80567 9.64464 2.70091C9.54642 2.59614 9.37946 2.5896 9.2747 2.69109C9.14702 2.81222 8.98988 2.98573 8.86547 3.17888C8.76398 3.33603 8.68214 3.50954 8.64285 3.68305C8.63958 3.69614 8.63958 3.70924 8.6363 3.72561C8.62321 3.8762 8.6363 4.03662 8.66904 4.20031C8.70178 4.35745 8.75744 4.52114 8.83601 4.68156L9.07172 4.56698L8.83601 4.68156C8.8491 4.70775 8.86547 4.73067 8.88839 4.75359C9.00625 4.89436 9.1372 5.02531 9.26488 5.15626C9.38601 5.28067 9.51041 5.40507 9.60863 5.52293C9.66101 5.63424 9.70029 5.74555 9.71994 5.85359C9.74285 5.96489 9.7494 6.07293 9.74285 6.17442C9.71994 6.27263 9.66428 6.38394 9.59553 6.48543C9.49732 6.6393 9.36964 6.78007 9.26815 6.87501C9.16339 6.97323 9.15684 7.14019 9.25833 7.24495C9.35654 7.34972 9.52351 7.35626 9.62827 7.25478C9.75595 7.13364 9.91309 6.96013 10.0375 6.76698C10.1357 6.61638 10.2143 6.44942 10.2536 6.28245C10.2601 6.26609 10.2634 6.24644 10.2634 6.23007L10.0015 6.20716L10.2634 6.23007C10.2765 6.0762 10.2667 5.91251 10.2306 5.74555C10.1979 5.59495 10.1455 5.43781 10.0702 5.28394C10.0604 5.25775 10.0473 5.23483 10.0277 5.21192C9.90327 5.0646 9.76904 4.9271 9.63482 4.7896C9.51369 4.66519 9.38928 4.54079 9.29107 4.42293C9.23869 4.31162 9.1994 4.20031 9.17976 4.09228C9.15684 3.98097 9.15029 3.87293 9.15684 3.77144C9.17976 3.67323 9.23541 3.56192 9.30416 3.46043C9.40238 3.30656 9.53005 3.16579 9.63154 3.07085H9.63482Z" fill="#1CB3B0"/>
<path d="M12.0607 4.17413C11.9985 4.04318 11.8446 3.98752 11.7137 4.04973C11.5827 4.11193 11.5271 4.2658 11.5893 4.39675C11.6613 4.55062 11.7366 4.69467 11.8086 4.83217C12.0771 5.34943 12.3095 5.79139 12.1426 6.38723C12.1196 6.46907 12.0836 6.55747 12.0443 6.64258C11.992 6.75389 11.933 6.85538 11.8872 6.92741C11.8086 7.04854 11.8446 7.21223 11.9658 7.28753C12.0869 7.3661 12.2506 7.33008 12.3259 7.20895C12.3815 7.12056 12.4536 6.99943 12.5158 6.8652C12.5681 6.75717 12.614 6.64258 12.6434 6.528C12.8661 5.73574 12.5911 5.20538 12.267 4.58991C12.1982 4.45568 12.1262 4.31818 12.0574 4.17413H12.0607Z" fill="#1CB3B0"/>
<path d="M5.14643 18.8571C5.00238 18.8571 4.88452 18.975 4.88452 19.1191C4.88452 19.2631 5.00238 19.381 5.14643 19.381H13.7664C13.9104 19.381 14.0283 19.2631 14.0283 19.1191C14.0283 18.975 13.9104 18.8571 13.7664 18.8571H5.14643Z" fill="#1CB3B0"/>
</g>
<defs>
<clipPath id="clip0_1_500">
<rect width="22" height="22" fill="white"/>
</clipPath>
</defs>
</svg>
