<svg width="14" height="14" viewBox="0 0 14 14" fill="none" xmlns="http://www.w3.org/2000/svg">
<path d="M13.125 9.48499C13.2491 9.25766 13.319 9.00471 13.3291 8.74591C13.3393 8.48711 13.2895 8.22947 13.1836 7.99311C13.0777 7.75675 12.9186 7.54807 12.7187 7.38338C12.5188 7.21869 12.2835 7.10245 12.0313 7.04374C12.0674 6.92063 12.0973 6.79579 12.1209 6.66968C12.4381 5.00937 10.8894 3.43874 9.22469 3.64874C8.13094 2.29905 5.85813 2.29905 4.76219 3.64874C2.94 3.42124 1.36063 5.27843 1.96875 7.04155C1.71668 7.10096 1.48169 7.21769 1.28207 7.38268C1.08244 7.54767 0.923548 7.75646 0.817738 7.99284C0.711928 8.22922 0.66205 8.48682 0.671982 8.74561C0.681913 9.0044 0.751386 9.25741 0.875001 9.48499C0.076564 11.3969 1.55969 11.8606 3.0625 10.8609C3.65313 10.9922 4.30938 10.8172 4.47125 10.2047C5.11219 10.4366 5.70281 10.2375 6.17313 9.69061C6.42175 9.85253 6.71206 9.93872 7.00875 9.93872C7.30545 9.93872 7.59575 9.85253 7.84438 9.69061C8.31688 10.2375 8.90531 10.4366 9.54844 10.2047C9.71031 10.8237 10.36 11.0031 10.9528 10.8609C12.4469 11.8628 13.9169 11.3925 13.125 9.48499ZM1.20313 10.815C1.05875 10.6641 1.05875 10.3075 1.18563 9.89624C1.5617 10.2413 1.99959 10.5122 2.47625 10.6947C1.98406 10.9375 1.40875 11.0337 1.20313 10.815ZM3.0625 10.4169C2.32313 10.2266 1.63625 9.82405 1.3125 9.34937C1.20311 9.17862 1.13717 8.98369 1.12044 8.78159C1.10371 8.57949 1.1367 8.37637 1.21653 8.18996C1.29636 8.00355 1.4206 7.83951 1.57841 7.71216C1.73622 7.58481 1.92281 7.49802 2.12188 7.45936C2.49375 8.39999 3.24625 9.50468 4.07969 10.0056C3.95063 10.4825 3.5875 10.5175 3.0625 10.4169ZM5.11656 9.84374C3.87625 9.91155 2.86563 8.2228 2.45438 7.14218C2.31524 6.8085 2.26002 6.44581 2.29356 6.08584C2.3271 5.72588 2.44838 5.37963 2.64677 5.07741C2.84516 4.77518 3.11461 4.5262 3.43154 4.35226C3.74847 4.17832 4.1032 4.08473 4.46469 4.07968C3.51969 5.63718 4.52813 8.21405 5.81 9.4303C5.63409 9.64471 5.38882 9.79094 5.11656 9.84374ZM7.75688 9.21593C5.9325 10.4934 4.4975 6.8228 4.51938 5.49718C4.51938 3.16749 7.56219 2.21593 8.97313 4.02061C9.30616 4.44057 9.48664 4.9612 9.485 5.49718C9.485 6.6303 8.73031 8.50718 7.75688 9.21593ZM8.88781 9.84374C8.61521 9.7891 8.37008 9.6414 8.19438 9.42593C9.47844 8.20968 10.4869 5.63062 9.54188 4.07093C9.90298 4.07686 10.2571 4.17104 10.5735 4.34527C10.8898 4.51949 11.1588 4.76847 11.3568 5.07048C11.5548 5.3725 11.676 5.71838 11.7096 6.07796C11.7433 6.43754 11.6885 6.79989 11.55 7.13343C11.1366 8.22499 10.1303 9.91155 8.88781 9.84374ZM10.1194 10.3359C10.0248 10.2486 9.96176 10.1325 9.94 10.0056C10.7734 9.50687 11.5259 8.40218 11.9088 7.46155C12.1079 7.50045 12.2944 7.58761 12.452 7.71538C12.6096 7.84316 12.7335 8.00764 12.8127 8.19442C12.892 8.38119 12.9242 8.58456 12.9066 8.78668C12.8889 8.9888 12.822 9.18351 12.7116 9.35374C12.3419 9.89843 10.8522 10.7887 10.1194 10.3359ZM12.7969 10.815C12.5781 11.0337 12.0159 10.9353 11.5238 10.6947C12.0004 10.5122 12.4383 10.2413 12.8144 9.89624C12.9434 10.3119 12.9413 10.6619 12.7969 10.815Z" fill="#1CB3B0"/>
</svg>
