<svg width="13" height="12" viewBox="0 0 13 12" fill="none" xmlns="http://www.w3.org/2000/svg">
<g clip-path="url(#clip0_1_539)">
<path d="M11.8828 3.1875H11.7812V3C11.7812 2.48306 11.3256 2.0625 10.7656 2.0625H8.9375V1.3125C8.9375 0.795563 8.48189 0.375 7.92188 0.375H5.07812C4.51811 0.375 4.0625 0.795563 4.0625 1.3125V2.0625H2.23438C1.67436 2.0625 1.21875 2.48306 1.21875 3V3.1875H1.11719C0.725156 3.1875 0.40625 3.48187 0.40625 3.84375C0.40625 4.20563 0.725156 4.5 1.11719 4.5H1.21875V10.6875C1.21875 11.2044 1.67436 11.625 2.23438 11.625H10.7656C11.3256 11.625 11.7812 11.2044 11.7812 10.6875V4.5H11.8828C12.2748 4.5 12.5938 4.20563 12.5938 3.84375C12.5938 3.48187 12.2748 3.1875 11.8828 3.1875ZM4.46875 1.3125C4.46875 1.00238 4.74216 0.75 5.07812 0.75H7.92188C8.25784 0.75 8.53125 1.00238 8.53125 1.3125V2.0625H8.125V1.3125C8.125 1.20881 8.034 1.125 7.92188 1.125H5.07812C4.966 1.125 4.875 1.20881 4.875 1.3125V2.0625H4.46875V1.3125ZM5.28125 2.0625V1.5H7.71875V2.0625H5.28125ZM1.625 3C1.625 2.68987 1.89841 2.4375 2.23438 2.4375H10.7656C11.1016 2.4375 11.375 2.68987 11.375 3V3.1875H1.625V3ZM1.11719 4.125C0.949203 4.125 0.8125 3.99881 0.8125 3.84375C0.8125 3.68869 0.949203 3.5625 1.11719 3.5625H1.21875V4.125H1.11719ZM2.64062 10.5C2.64062 10.0491 3.1397 9.42356 3.45312 9.09019C3.76675 9.423 4.26562 10.0479 4.26562 10.5C4.26562 10.5859 4.25608 10.6609 4.24206 10.7312C4.13136 10.2988 3.65564 9.858 3.59511 9.80344C3.51609 9.732 3.38995 9.732 3.31114 9.80344C3.25061 9.858 2.77489 10.299 2.66419 10.7312C2.65017 10.6609 2.64062 10.5859 2.64062 10.5ZM3.33978 11.2436C3.12914 11.2198 3.04688 11.1201 3.04688 10.9018C3.04688 10.7087 3.25914 10.4196 3.45272 10.2126C3.62741 10.3997 3.85938 10.6948 3.85938 10.9018C3.85938 11.1201 3.77711 11.2198 3.56647 11.2438C3.52909 11.2461 3.49375 11.25 3.45312 11.25C3.4125 11.25 3.37716 11.2461 3.33978 11.2436ZM5.6875 10.5C5.6875 10.0491 6.18658 9.42356 6.5 9.09019C6.81362 9.423 7.3125 10.0479 7.3125 10.5C7.3125 10.5859 7.30295 10.6609 7.28894 10.7312C7.17823 10.2988 6.70252 9.858 6.64198 9.80344C6.56297 9.732 6.43683 9.732 6.35802 9.80344C6.29748 9.858 5.82177 10.299 5.71106 10.7312C5.69705 10.6609 5.6875 10.5859 5.6875 10.5ZM6.38666 11.2436C6.17602 11.2198 6.09375 11.1201 6.09375 10.9018C6.09375 10.7087 6.30602 10.4196 6.49959 10.2126C6.67428 10.3997 6.90625 10.6948 6.90625 10.9018C6.90625 11.1201 6.82398 11.2198 6.61334 11.2438C6.57597 11.2461 6.54063 11.25 6.5 11.25C6.45937 11.25 6.42403 11.2461 6.38666 11.2436ZM8.73438 10.5C8.73438 10.0491 9.23345 9.42356 9.54688 9.09019C9.8605 9.423 10.3594 10.0479 10.3594 10.5C10.3594 10.5859 10.3498 10.6609 10.3358 10.7312C10.2251 10.2988 9.74939 9.858 9.68886 9.80344C9.60984 9.732 9.4837 9.732 9.40489 9.80344C9.34436 9.858 8.86864 10.299 8.75794 10.7312C8.74392 10.6609 8.73438 10.5859 8.73438 10.5ZM9.43353 11.2436C9.22289 11.2198 9.14062 11.1201 9.14062 10.9018C9.14062 10.7087 9.35289 10.4196 9.54647 10.2126C9.72116 10.3997 9.95312 10.6948 9.95312 10.9018C9.95312 11.1201 9.87086 11.2198 9.66022 11.2438C9.62284 11.2461 9.5875 11.25 9.54688 11.25C9.50625 11.25 9.47091 11.2461 9.43353 11.2436ZM11.375 10.6875C11.375 10.9976 11.1016 11.25 10.7656 11.25H10.5231C10.6795 11.064 10.7656 10.8148 10.7656 10.5C10.7656 9.70781 9.73619 8.72306 9.69231 8.68181C9.61594 8.60925 9.47761 8.60925 9.40123 8.68181C9.35756 8.72306 8.32812 9.70781 8.32812 10.5C8.32812 10.8148 8.41425 11.064 8.57066 11.25H7.47622C7.63263 11.064 7.71875 10.8148 7.71875 10.5C7.71875 9.70781 6.68931 8.72306 6.64544 8.68181C6.56906 8.60925 6.43073 8.60925 6.35436 8.68181C6.31069 8.72306 5.28125 9.70781 5.28125 10.5C5.28125 10.8148 5.36737 11.064 5.52378 11.25H4.42934C4.58575 11.064 4.67188 10.8148 4.67188 10.5C4.67188 9.70781 3.64244 8.72306 3.59856 8.68181C3.52219 8.60925 3.38386 8.60925 3.30748 8.68181C3.26381 8.72306 2.23438 9.70781 2.23438 10.5C2.23438 10.8148 2.3205 11.064 2.47691 11.25H2.23438C1.89841 11.25 1.625 10.9976 1.625 10.6875V3.5625H11.375V10.6875ZM11.8828 4.125H11.7812V3.5625H11.8828C12.0508 3.5625 12.1875 3.68869 12.1875 3.84375C12.1875 3.99881 12.0508 4.125 11.8828 4.125Z" fill="#1CB3B0"/>
<path d="M10.9688 3.9375H10.5625V4.3125H10.9688V3.9375Z" fill="#1CB3B0"/>
<path d="M10.1562 3.9375H9.75V4.3125H10.1562V3.9375Z" fill="#1CB3B0"/>
<path d="M9.34375 3.9375H8.9375V4.3125H9.34375V3.9375Z" fill="#1CB3B0"/>
</g>
<defs>
<clipPath id="clip0_1_539">
<rect width="13" height="12" fill="white"/>
</clipPath>
</defs>
</svg>
