<svg width="19" height="22" viewBox="0 0 19 22" fill="none" xmlns="http://www.w3.org/2000/svg">
<path d="M2 5.9L8.5 1L15 5.9V13.6C15 13.9713 14.8478 14.3274 14.5769 14.5899C14.306 14.8525 13.9386 15 13.5556 15H3.44444C3.06135 15 2.69395 14.8525 2.42307 14.5899C2.15218 14.3274 2 13.9713 2 13.6V5.9Z" stroke="#E3E3E3" stroke-width="0.75" stroke-linecap="round" stroke-linejoin="round"/>
<g filter="url(#filter0_d_1_382)">
<path fill-rule="evenodd" clip-rule="evenodd" d="M9.5 2L4 6.2V12.8C4 13.1183 4.12877 13.4235 4.35798 13.6485C4.58719 13.8736 4.89807 14 5.22222 14H8V10C8 9.44772 8.44772 9 9 9H10C10.5523 9 11 9.44772 11 10V14H13.7778C14.1019 14 14.4128 13.8736 14.642 13.6485C14.8712 13.4235 15 13.1183 15 12.8V6.2L9.5 2Z" fill="#E3E3E3"/>
</g>
<defs>
<filter id="filter0_d_1_382" x="0" y="2" width="19" height="20" filterUnits="userSpaceOnUse" color-interpolation-filters="sRGB">
<feFlood flood-opacity="0" result="BackgroundImageFix"/>
<feColorMatrix in="SourceAlpha" type="matrix" values="0 0 0 0 0 0 0 0 0 0 0 0 0 0 0 0 0 0 127 0" result="hardAlpha"/>
<feOffset dy="4"/>
<feGaussianBlur stdDeviation="2"/>
<feComposite in2="hardAlpha" operator="out"/>
<feColorMatrix type="matrix" values="0 0 0 0 0 0 0 0 0 0 0 0 0 0 0 0 0 0 0.25 0"/>
<feBlend mode="normal" in2="BackgroundImageFix" result="effect1_dropShadow_1_382"/>
<feBlend mode="normal" in="SourceGraphic" in2="effect1_dropShadow_1_382" result="shape"/>
</filter>
</defs>
</svg>
