<svg width="17" height="17" viewBox="0 0 17 17" fill="none" xmlns="http://www.w3.org/2000/svg">
<path d="M7.4375 8.5C8.0243 8.5 8.5 8.0243 8.5 7.4375C8.5 6.8507 8.0243 6.375 7.4375 6.375C6.8507 6.375 6.375 6.8507 6.375 7.4375C6.375 8.0243 6.8507 8.5 7.4375 8.5Z" stroke="#1CB3B0" stroke-miterlimit="10" stroke-linecap="round" stroke-linejoin="round"/>
<path d="M8.5 7.4375H14.3438V8.075C14.3438 10.6781 12.2719 12.75 9.66875 12.75H6.26875C3.66563 12.75 1.59375 10.6781 1.59375 8.075V7.4375H6.375" stroke="#1CB3B0" stroke-miterlimit="10" stroke-linecap="round" stroke-linejoin="round"/>
<path d="M6.375 7.4375H1.59375C1.59375 4.51562 3.98438 2.125 6.90625 2.125H7.4375V6.375" stroke="#1CB3B0" stroke-miterlimit="10" stroke-linecap="round" stroke-linejoin="round"/>
<path d="M15.4062 4.25H14.3438L14.1313 4.94063C13.6 6.42813 12.2188 7.4375 10.625 7.4375" stroke="#1CB3B0" stroke-miterlimit="10" stroke-linecap="round" stroke-linejoin="round"/>
<path d="M12.2188 15.4062C13.099 15.4062 13.8125 14.6927 13.8125 13.8125C13.8125 12.9323 13.099 12.2188 12.2188 12.2188C11.3385 12.2188 10.625 12.9323 10.625 13.8125C10.625 14.6927 11.3385 15.4062 12.2188 15.4062Z" stroke="#1CB3B0" stroke-miterlimit="10" stroke-linecap="round" stroke-linejoin="round"/>
<path d="M3.71875 15.4062C4.59895 15.4062 5.3125 14.6927 5.3125 13.8125C5.3125 12.9323 4.59895 12.2188 3.71875 12.2188C2.83855 12.2188 2.125 12.9323 2.125 13.8125C2.125 14.6927 2.83855 15.4062 3.71875 15.4062Z" stroke="#1CB3B0" stroke-miterlimit="10" stroke-linecap="round" stroke-linejoin="round"/>
</svg>
