<svg width="22" height="22" viewBox="0 0 22 22" fill="none" xmlns="http://www.w3.org/2000/svg">
<path d="M14.5433 11.99C13.4182 11.99 12.5035 12.9153 12.5035 14.0527C12.5035 15.1901 13.4182 16.1154 14.5433 16.1154C15.5307 16.1154 16.3552 15.4022 16.5422 14.4584C16.5673 14.403 16.5827 14.3427 16.5827 14.278V4.675C16.5827 4.54212 16.5224 4.41628 16.4195 4.33312C16.3165 4.24952 16.1814 4.21608 16.0507 4.24512L7.80998 6.00512C7.60714 6.04824 7.46194 6.22776 7.46194 6.43544V14.5596C7.13238 14.3282 6.7333 14.1904 6.3021 14.1904C5.17746 14.1904 4.2627 15.1158 4.2627 16.2532C4.2627 17.3906 5.17746 18.3159 6.3021 18.3159C7.42718 18.3159 8.34194 17.3906 8.34194 16.2532C8.34194 16.2039 8.33094 16.1577 8.32742 16.1097C8.33138 16.0855 8.34194 16.064 8.34194 16.0384V9.43096L15.7027 7.85884V12.3596C15.3727 12.1277 14.9741 11.99 14.5433 11.99ZM14.5433 15.235C13.904 15.235 13.3835 14.7044 13.3835 14.0523C13.3835 13.4002 13.904 12.8696 14.5433 12.8696C15.1826 12.8696 15.7027 13.4002 15.7027 14.0523C15.7027 14.7044 15.1826 15.235 14.5433 15.235ZM6.30166 17.435C5.66234 17.435 5.14226 16.9044 5.14226 16.2523C5.14226 15.6002 5.66234 15.0696 6.30166 15.0696C6.94098 15.0696 7.4615 15.6002 7.4615 16.2523C7.4615 16.9044 6.94098 17.435 6.30166 17.435ZM8.3415 8.53116V6.79052L15.7023 5.21884V6.95904L8.3415 8.53116Z" fill="#1CB3B0"/>
</svg>
