<svg width="10" height="12" viewBox="0 0 10 12" fill="none" xmlns="http://www.w3.org/2000/svg">
<path d="M8.90909 4.95455C8.90909 8.0303 4.95455 10.6667 4.95455 10.6667C4.95455 10.6667 1 8.0303 1 4.95455C1 3.90574 1.41664 2.89988 2.15826 2.15826C2.89988 1.41664 3.90573 1 4.95455 1C6.00336 1 7.00921 1.41664 7.75083 2.15826C8.49245 2.89988 8.90909 3.90574 8.90909 4.95455Z" stroke="#525252" stroke-linecap="round" stroke-linejoin="round"/>
<path d="M4.95453 6.27272C5.68255 6.27272 6.27272 5.68255 6.27272 4.95453C6.27272 4.22652 5.68255 3.63635 4.95453 3.63635C4.22652 3.63635 3.63635 4.22652 3.63635 4.95453C3.63635 5.68255 4.22652 6.27272 4.95453 6.27272Z" stroke="#525252" stroke-linecap="round" stroke-linejoin="round"/>
</svg>
