<svg width="12" height="13" viewBox="0 0 12 13" fill="none" xmlns="http://www.w3.org/2000/svg">
<path d="M9.8 5.95H2.1C1.49249 5.95 1 6.44249 1 7.05V10.9C1 11.5075 1.49249 12 2.1 12H9.8C10.4075 12 10.9 11.5075 10.9 10.9V7.05C10.9 6.44249 10.4075 5.95 9.8 5.95Z" stroke="#1CB3B0" stroke-linecap="round" stroke-linejoin="round"/>
<path d="M3.19995 5.95V3.75C3.19995 3.02065 3.48968 2.32118 4.00541 1.80546C4.52113 1.28973 5.22061 1 5.94995 1C6.6793 1 7.37877 1.28973 7.89449 1.80546C8.41022 2.32118 8.69995 3.02065 8.69995 3.75V5.95" stroke="#1CB3B0" stroke-linecap="round" stroke-linejoin="round"/>
</svg>
