<svg width="15" height="18" viewBox="0 0 15 18" fill="none" xmlns="http://www.w3.org/2000/svg">
<path d="M8.75 1H9.875C10.1734 1 10.4595 1.11706 10.6705 1.32544C10.8815 1.53381 11 1.81643 11 2.11111V9.88889C11 10.1836 10.8815 10.4662 10.6705 10.6746C10.4595 10.8829 10.1734 11 9.875 11H3.125C2.82663 11 2.54048 10.8829 2.3295 10.6746C2.11853 10.4662 2 10.1836 2 9.88889V2.11111C2 1.81643 2.11853 1.53381 2.3295 1.32544C2.54048 1.11706 2.82663 1 3.125 1H4.25" stroke="white" stroke-width="0.75" stroke-linecap="round" stroke-linejoin="round"/>
<g filter="url(#filter0_d_1_369)">
<rect x="4" y="1" width="7" height="9" rx="1" fill="white"/>
</g>
<g filter="url(#filter1_d_1_369)">
<path d="M8.625 0H6.375C6.16789 0 6 0.223858 6 0.5V1.5C6 1.77614 6.16789 2 6.375 2H8.625C8.83211 2 9 1.77614 9 1.5V0.5C9 0.223858 8.83211 0 8.625 0Z" fill="white"/>
</g>
<defs>
<filter id="filter0_d_1_369" x="0" y="1" width="15" height="17" filterUnits="userSpaceOnUse" color-interpolation-filters="sRGB">
<feFlood flood-opacity="0" result="BackgroundImageFix"/>
<feColorMatrix in="SourceAlpha" type="matrix" values="0 0 0 0 0 0 0 0 0 0 0 0 0 0 0 0 0 0 127 0" result="hardAlpha"/>
<feOffset dy="4"/>
<feGaussianBlur stdDeviation="2"/>
<feComposite in2="hardAlpha" operator="out"/>
<feColorMatrix type="matrix" values="0 0 0 0 0 0 0 0 0 0 0 0 0 0 0 0 0 0 0.25 0"/>
<feBlend mode="normal" in2="BackgroundImageFix" result="effect1_dropShadow_1_369"/>
<feBlend mode="normal" in="SourceGraphic" in2="effect1_dropShadow_1_369" result="shape"/>
</filter>
<filter id="filter1_d_1_369" x="2" y="0" width="11" height="10" filterUnits="userSpaceOnUse" color-interpolation-filters="sRGB">
<feFlood flood-opacity="0" result="BackgroundImageFix"/>
<feColorMatrix in="SourceAlpha" type="matrix" values="0 0 0 0 0 0 0 0 0 0 0 0 0 0 0 0 0 0 127 0" result="hardAlpha"/>
<feOffset dy="4"/>
<feGaussianBlur stdDeviation="2"/>
<feComposite in2="hardAlpha" operator="out"/>
<feColorMatrix type="matrix" values="0 0 0 0 0 0 0 0 0 0 0 0 0 0 0 0 0 0 0.25 0"/>
<feBlend mode="normal" in2="BackgroundImageFix" result="effect1_dropShadow_1_369"/>
<feBlend mode="normal" in="SourceGraphic" in2="effect1_dropShadow_1_369" result="shape"/>
</filter>
</defs>
</svg>
