<svg width="17" height="17" viewBox="0 0 17 17" fill="none" xmlns="http://www.w3.org/2000/svg">
<g clip-path="url(#clip0_1_440)">
<path d="M12.8866 0.0455844C12.758 -0.0248394 12.5964 0.0225082 12.5261 0.150772L10.5621 3.73166H3.19649C3.09482 3.73166 3.00218 3.78964 2.95759 3.88094C2.91323 3.97225 2.92465 4.08093 2.98741 4.16098L7.09111 9.40422C7.43042 9.83871 7.63923 10.3547 7.69475 10.8963C7.69501 10.8979 7.69528 10.8994 7.69528 10.901C7.7067 10.9942 7.71215 11.0941 7.71215 11.2064V14.6834C7.71215 15.0472 7.52096 15.3925 7.2128 15.5844L5.71192 16.522C5.61155 16.5848 5.56483 16.7066 5.59754 16.8205C5.63021 16.9345 5.73424 17.0129 5.8528 17.0129H11.1653C11.2838 17.0129 11.3879 16.9345 11.4206 16.8205C11.4532 16.7066 11.4066 16.5848 11.3062 16.522L9.80504 15.5843C9.49715 15.3925 9.30596 15.0472 9.30596 14.6834V11.2064C9.30596 11.0941 9.31141 10.9942 9.32333 10.8963C9.37884 10.3547 9.58766 9.83868 9.92669 9.40445L14.0307 4.16095C14.0935 4.08093 14.1048 3.97222 14.0605 3.88091C14.0159 3.7896 13.9233 3.73163 13.8216 3.73163H11.1679L12.9919 0.40627C13.0625 0.277608 13.0153 0.116141 12.8866 0.0455844ZM9.7396 5.76857C9.55432 5.67451 9.41932 5.51457 9.35281 5.32538H10.8507C10.7407 5.6339 10.4486 5.85663 10.1028 5.85663C9.97667 5.85666 9.85451 5.82708 9.7396 5.76857ZM9.3548 4.79416C9.46481 4.48564 9.75689 4.26291 10.1027 4.26291C10.2449 4.26291 10.3834 4.30053 10.5059 4.37315C10.6691 4.46788 10.7857 4.62011 10.8479 4.79416H9.3548ZM9.52351 16.035L10.2387 16.4817H6.7793L7.4942 16.0351C7.95619 15.747 8.24333 15.229 8.24333 14.6834V11.2064C8.24333 11.1905 8.2423 11.1763 8.2421 11.1607C8.33192 11.166 8.42063 11.1691 8.50895 11.1691C8.59724 11.1691 8.68599 11.166 8.77581 11.1607C8.77561 11.1763 8.77458 11.1904 8.77458 11.2064V14.6834C8.77461 15.229 9.06179 15.747 9.52351 16.035ZM9.5082 9.07737C9.15236 9.53305 8.91878 10.0653 8.82475 10.6243C8.61115 10.6409 8.40669 10.6409 8.19309 10.6243C8.0984 10.0632 7.86488 9.53208 7.50954 9.0771L4.57312 5.32541H6.1184C6.26522 5.32541 6.38402 5.20648 6.38402 5.05979C6.38402 4.9131 6.26522 4.79416 6.1184 4.79416H4.15732L3.74152 4.26291H9.04708C8.9296 4.4181 8.84175 4.59667 8.80151 4.79416H6.91527C6.76845 4.79416 6.64965 4.9131 6.64965 5.05979C6.64965 5.20648 6.76845 5.32541 6.91527 5.32541H8.8042C8.84358 5.52015 8.92476 5.70091 9.04216 5.85686C9.0415 5.85686 9.04094 5.85666 9.04027 5.85666C8.89345 5.85666 8.77465 5.9756 8.77465 6.12229C8.77465 6.26898 8.89345 6.38791 9.04027 6.38791C9.47968 6.38791 9.83715 6.74538 9.83715 7.18479C9.83715 7.6242 9.47968 7.98166 9.04027 7.98166C8.88853 7.98166 8.74662 7.94082 8.61849 7.8604C8.38348 7.71282 8.2434 7.46027 8.2434 7.18479C8.2434 6.95612 8.34171 6.73824 8.51317 6.58713C8.62314 6.48998 8.63353 6.32217 8.53651 6.21217C8.439 6.10207 8.27165 6.09207 8.16142 6.18869C7.8758 6.44071 7.71215 6.80372 7.71215 7.18479C7.71215 7.55862 7.86867 7.90516 8.13668 8.15415L8.01021 8.38554C7.93992 8.51421 7.98737 8.67567 8.11606 8.74597C8.15654 8.76814 8.2001 8.7785 8.24316 8.7785C8.33706 8.7785 8.42837 8.72857 8.47661 8.64025L8.59093 8.4311C8.73454 8.483 8.88568 8.51288 9.0403 8.51288C9.7726 8.51288 10.3684 7.91705 10.3684 7.18475C10.3684 6.88443 10.2644 6.61021 10.0957 6.38745C10.0981 6.38745 10.1004 6.38788 10.1028 6.38788C10.7441 6.38788 11.2807 5.9308 11.4041 5.32538H12.4449L9.5082 9.07737ZM12.8607 4.79416H11.401C11.3613 4.60085 11.2813 4.41897 11.1645 4.26291H13.2765L12.8607 4.79416Z" fill="#1CB3B0"/>
<path d="M3.1965 1.34103H2.93088C2.78405 1.34103 2.66525 1.45997 2.66525 1.60666C2.66525 1.75335 2.78405 1.87228 2.93088 1.87228H3.1965C3.34333 1.87228 3.46213 1.75335 3.46213 1.60666C3.46213 1.45997 3.34333 1.34103 3.1965 1.34103Z" fill="#1CB3B0"/>
<path d="M3.72775 0.544159C3.58093 0.544159 3.46213 0.663093 3.46213 0.809784V1.07541C3.46213 1.2221 3.58093 1.34103 3.72775 1.34103C3.87458 1.34103 3.99338 1.2221 3.99338 1.07541V0.809784C3.99338 0.663093 3.87458 0.544159 3.72775 0.544159Z" fill="#1CB3B0"/>
<path d="M4.259 1.87228H4.52463C4.67145 1.87228 4.79025 1.75335 4.79025 1.60666C4.79025 1.45997 4.67145 1.34103 4.52463 1.34103H4.259C4.11218 1.34103 3.99338 1.45997 3.99338 1.60666C3.99338 1.75335 4.11218 1.87228 4.259 1.87228Z" fill="#1CB3B0"/>
<path d="M3.46213 2.40353C3.46213 2.55023 3.58093 2.66916 3.72775 2.66916C3.87458 2.66916 3.99338 2.55023 3.99338 2.40353V2.13791C3.99338 1.99122 3.87458 1.87228 3.72775 1.87228C3.58093 1.87228 3.46213 1.99122 3.46213 2.13791V2.40353Z" fill="#1CB3B0"/>
<path d="M14.0871 1.87228H13.8215C13.6747 1.87228 13.5559 1.99122 13.5559 2.13791C13.5559 2.2846 13.6747 2.40353 13.8215 2.40353H14.0871C14.234 2.40353 14.3528 2.2846 14.3528 2.13791C14.3528 1.99122 14.234 1.87228 14.0871 1.87228Z" fill="#1CB3B0"/>
<path d="M14.6184 1.07541C14.4716 1.07541 14.3528 1.19434 14.3528 1.34103V1.60666C14.3528 1.75335 14.4716 1.87228 14.6184 1.87228C14.7652 1.87228 14.884 1.75335 14.884 1.60666V1.34103C14.884 1.19434 14.7652 1.07541 14.6184 1.07541Z" fill="#1CB3B0"/>
<path d="M15.4153 1.87228H15.1496C15.0028 1.87228 14.884 1.99122 14.884 2.13791C14.884 2.2846 15.0028 2.40353 15.1496 2.40353H15.4153C15.5621 2.40353 15.6809 2.2846 15.6809 2.13791C15.6809 1.99122 15.5621 1.87228 15.4153 1.87228Z" fill="#1CB3B0"/>
<path d="M14.3528 2.93478C14.3528 3.08148 14.4716 3.20041 14.6184 3.20041C14.7652 3.20041 14.884 3.08148 14.884 2.93478V2.66916C14.884 2.52247 14.7652 2.40353 14.6184 2.40353C14.4716 2.40353 14.3528 2.52247 14.3528 2.66916V2.93478Z" fill="#1CB3B0"/>
<path d="M7.71213 0.544159C7.27272 0.544159 6.91525 0.901624 6.91525 1.34103C6.91525 1.78044 7.27272 2.13791 7.71213 2.13791C8.15154 2.13791 8.509 1.78044 8.509 1.34103C8.509 0.901624 8.15157 0.544159 7.71213 0.544159ZM7.71213 1.60666C7.56557 1.60666 7.4465 1.48746 7.4465 1.34103C7.4465 1.19461 7.56557 1.07541 7.71213 1.07541C7.85869 1.07541 7.97775 1.19461 7.97775 1.34103C7.97775 1.48746 7.85869 1.60666 7.71213 1.60666Z" fill="#1CB3B0"/>
</g>
<defs>
<clipPath id="clip0_1_440">
<rect width="17" height="17" fill="white"/>
</clipPath>
</defs>
</svg>
