<svg width="16" height="16" viewBox="0 0 16 16" fill="none" xmlns="http://www.w3.org/2000/svg">
<path d="M6.31313 6.48125C6.21949 6.44732 6.4068 6.51499 6.31313 6.48125V6.48125Z" fill="#1CB3B0"/>
<path d="M6.64571 6.48125C6.552 6.51499 6.73938 6.44732 6.64571 6.48125V6.48125Z" fill="#1CB3B0"/>
<path d="M6.22705 9.54024C6.2044 9.47794 6.24952 9.60273 6.22705 9.54024V9.54024Z" fill="#1CB3B0"/>
<path d="M6.05819 7.99543C6.08552 8.12494 6.16097 8.23536 6.28745 8.28336C6.40125 8.32654 6.54289 8.32734 6.65792 8.28823C6.78433 8.24526 6.86511 8.14158 6.89648 8.01395C6.97232 7.70534 6.80147 7.41399 6.62382 7.17461C6.57837 7.11339 6.53079 7.05332 6.4794 6.99692C6.33387 7.1566 6.20267 7.34189 6.1157 7.53993C6.05167 7.68586 6.02484 7.83766 6.05819 7.99543ZM6.21726 7.89326C6.26354 7.73473 6.3692 7.58722 6.4794 7.46603C6.58795 7.58535 6.69091 7.72951 6.73895 7.88469C6.77 7.98499 6.76928 8.10999 6.71158 8.20118C6.66116 8.28092 6.56965 8.30955 6.4794 8.30955C6.39196 8.30955 6.30265 8.28293 6.25136 8.20748C6.19115 8.11893 6.18812 7.99313 6.21726 7.89326Z" fill="#1CB3B0"/>
<path d="M6.1723 8.7476L6.17241 8.74778L6.17218 8.74725L6.1723 8.7476Z" fill="#1CB3B0"/>
<path d="M6.78668 8.74757C6.78676 8.74725 6.78684 8.74697 6.78696 8.74664C6.78676 8.74717 6.7866 8.74757 6.78644 8.7481C6.78652 8.7479 6.7866 8.74774 6.78668 8.74757Z" fill="#1CB3B0"/>
<path d="M3.27875 6.48135C3.18511 6.44742 3.37231 6.51502 3.27875 6.48135V6.48135Z" fill="#1CB3B0"/>
<path d="M3.61133 6.48135C3.51781 6.51502 3.70501 6.44742 3.61133 6.48135V6.48135Z" fill="#1CB3B0"/>
<path d="M3.67821 9.54015C3.6557 9.60263 3.70079 9.47777 3.67821 9.54015V9.54015Z" fill="#1CB3B0"/>
<path d="M3.02392 7.99529C3.05129 8.1248 3.1267 8.23525 3.25315 8.28329C3.36688 8.32647 3.50849 8.32727 3.62348 8.28815C3.74985 8.24512 3.83063 8.14143 3.862 8.01384C3.9378 7.70527 3.76699 7.41396 3.58944 7.17461C3.54399 7.11339 3.49638 7.05332 3.44503 6.99692C3.29953 7.15664 3.16837 7.34189 3.08143 7.5399C3.01737 7.68579 2.99057 7.83755 3.02392 7.99529ZM3.18289 7.89334C3.22913 7.7348 3.33483 7.58733 3.44503 7.4661C3.55357 7.58549 3.65657 7.72962 3.70462 7.88476C3.73566 7.98506 3.73498 8.10999 3.67721 8.20114C3.62675 8.28084 3.53528 8.30947 3.44503 8.30947C3.35762 8.30947 3.26831 8.28286 3.21699 8.20748C3.15678 8.11893 3.15371 7.9932 3.18289 7.89334Z" fill="#1CB3B0"/>
<path d="M9.35086 6.48135C9.25726 6.44742 9.4446 6.51502 9.35086 6.48135V6.48135Z" fill="#1CB3B0"/>
<path d="M9.68348 6.48135C9.58974 6.51502 9.77705 6.44742 9.68348 6.48135V6.48135Z" fill="#1CB3B0"/>
<path d="M9.26483 9.54024C9.24218 9.47787 9.2873 9.60273 9.26483 9.54024V9.54024Z" fill="#1CB3B0"/>
<path d="M9.09591 7.99541C9.12325 8.12492 9.1987 8.23534 9.32518 8.28334C9.43898 8.32653 9.58059 8.32735 9.69565 8.28821C9.82206 8.24524 9.9028 8.14156 9.93417 8.01393C10.01 7.70532 9.83913 7.41394 9.66154 7.17452C9.6161 7.11333 9.56852 7.05322 9.51713 6.99683C9.3716 7.15658 9.2404 7.34187 9.15343 7.53991C9.08943 7.68584 9.0626 7.83764 9.09591 7.99541ZM9.25499 7.89324C9.30126 7.73475 9.40693 7.58724 9.51713 7.46601C9.62568 7.58536 9.72864 7.72953 9.77668 7.88467C9.80773 7.98501 9.807 8.10997 9.74927 8.20116C9.69886 8.2809 9.60738 8.30953 9.51713 8.30953C9.42969 8.30953 9.34037 8.28291 9.28909 8.20746C9.22891 8.11891 9.22589 7.99315 9.25499 7.89324Z" fill="#1CB3B0"/>
<path d="M9.82438 8.74734C9.82451 8.74703 9.82457 8.74671 9.82466 8.74643C9.82451 8.74693 9.82432 8.74741 9.82413 8.74791C9.82422 8.74769 9.82432 8.74753 9.82438 8.74734Z" fill="#1CB3B0"/>
<path d="M12.3886 6.49383C12.295 6.45994 12.4823 6.52761 12.3886 6.49383V6.49383Z" fill="#1CB3B0"/>
<path d="M12.7213 6.49383C12.6276 6.52761 12.8149 6.45994 12.7213 6.49383V6.49383Z" fill="#1CB3B0"/>
<path d="M12.3025 9.55283C12.2799 9.49042 12.325 9.61528 12.3025 9.55283V9.55283Z" fill="#1CB3B0"/>
<path d="M12.1337 8.00798C12.1611 8.13748 12.2365 8.2479 12.363 8.29591C12.4768 8.33909 12.6184 8.33992 12.7335 8.30077C12.8598 8.2578 12.9406 8.15412 12.9719 8.02649C13.0477 7.71789 12.8769 7.42657 12.6994 7.18715C12.6539 7.12597 12.6063 7.06586 12.555 7.00946C12.4094 7.16915 12.2782 7.35447 12.1912 7.55251C12.1272 7.69848 12.1004 7.85024 12.1337 8.00798ZM12.2928 7.90584C12.3391 7.74735 12.4448 7.59983 12.555 7.47861C12.6635 7.59796 12.7665 7.74212 12.8145 7.89727C12.8456 7.99761 12.8449 8.12257 12.7871 8.21376C12.7367 8.29349 12.6452 8.32213 12.555 8.32213C12.4675 8.32213 12.3782 8.29551 12.3269 8.22006C12.2667 8.13147 12.2637 8.00574 12.2928 7.90584Z" fill="#1CB3B0"/>
<path d="M12.2479 8.76049C12.248 8.7607 12.2481 8.76092 12.2481 8.76106C12.248 8.76056 12.2478 8.76006 12.2476 8.75955C12.2477 8.75984 12.2478 8.7602 12.2479 8.76049Z" fill="#1CB3B0"/>
<path d="M12.8623 8.76053C12.8625 8.76024 12.8625 8.75988 12.8626 8.75952C12.8625 8.7601 12.8622 8.7606 12.862 8.76103C12.8622 8.76096 12.8622 8.76075 12.8623 8.76053Z" fill="#1CB3B0"/>
<path d="M0 12.8619H16C16 12.4582 15.765 12.104 15.5181 11.9029V5.17357C15.5974 5.12235 15.6578 5.06264 15.6991 4.99415C15.8183 4.7969 15.731 4.61831 15.7207 4.59864L15.4018 4.76603C15.4018 4.76603 15.4001 4.76351 15.3982 4.75869C15.4018 4.76794 15.4052 4.78732 15.3876 4.81296C15.3504 4.86731 15.1586 5.0446 14.2555 5.0446C14.2505 5.0446 14.2458 5.04565 14.2409 5.04608C14.1083 4.18088 12.8081 3.31483 12.6527 3.2142L12.5548 3.15078L12.4569 3.2142C12.3294 3.29675 11.4311 3.89472 11.0395 4.58467C10.6518 3.88942 9.74315 3.28468 9.61491 3.20163L9.51699 3.13821L9.41907 3.20163C9.29125 3.28447 8.38789 3.88568 7.99822 4.57826C7.60848 3.88572 6.70496 3.28447 6.57715 3.20163L6.47923 3.13821L6.38131 3.20163C6.25368 3.28432 5.35268 3.88399 4.96215 4.57534C4.57148 3.88402 3.67041 3.28432 3.54278 3.20163L3.44486 3.13821L3.34694 3.20163C3.19092 3.30276 1.87884 4.17656 1.75693 5.0459C1.75272 5.04561 1.74868 5.04464 1.74433 5.04464C0.841245 5.04464 0.649472 4.86734 0.612197 4.813C0.594623 4.78736 0.598008 4.76798 0.601573 4.75872C0.599701 4.76355 0.598008 4.76607 0.598008 4.76607L0.279142 4.59868C0.26877 4.61838 0.181473 4.79697 0.300679 4.99418C0.342058 5.06268 0.402381 5.12243 0.481756 5.1736V11.9029C0.234954 12.104 0 12.4582 0 12.8619ZM2.75404 8.54233C2.79294 8.39924 2.69595 8.23347 2.53393 8.25605C2.61308 8.27125 2.68133 8.33618 2.6845 8.41934C2.68817 8.51438 2.6137 8.59944 2.51948 8.60852C2.43269 8.61687 2.34511 8.56552 2.30805 8.48658C2.26829 8.40205 2.28982 8.2997 2.34583 8.22778C2.47548 8.0614 2.72707 8.11063 2.84959 8.25847C2.91776 8.34065 2.92914 8.42953 2.94045 8.53185C2.95183 8.63481 2.98168 8.7373 3.03743 8.82525C3.05677 8.85572 3.08015 8.8846 3.10636 8.91118C2.98946 8.96459 2.93137 9.11008 2.98262 9.23505C3.02335 9.33953 3.13067 9.38163 3.23086 9.40936C3.19402 9.43702 3.17241 9.48344 3.19251 9.53973C3.18693 9.52424 3.18149 9.50919 3.19262 9.54012C3.20385 9.57113 3.19838 9.55597 3.1928 9.54048C3.22921 9.64017 3.34708 9.63289 3.40027 9.57142C3.40027 9.57214 3.40034 9.57282 3.40038 9.57354C3.40254 9.56994 3.40449 9.5663 3.4065 9.56263C3.41709 9.54776 3.42437 9.53054 3.42609 9.51106C3.43088 9.48812 3.43024 9.46446 3.42123 9.44076C3.40196 9.38991 3.35245 9.35804 3.30613 9.33463C3.23547 9.29894 3.10676 9.26952 3.07989 9.18243C3.06884 9.14448 3.05371 9.10014 3.06621 9.06089C3.07842 9.00806 3.09985 8.97039 3.13107 8.93466C3.19499 8.99167 3.27332 9.03417 3.35626 9.04969C3.41288 9.06744 3.47824 9.06719 3.53424 9.04962C3.61257 9.03492 3.6868 8.99617 3.74867 8.94381C3.77928 8.97982 3.80226 9.02026 3.80676 9.07144C3.81029 9.11138 3.80147 9.14552 3.79081 9.18319C3.76257 9.27308 3.62608 9.30189 3.55387 9.34028C3.50817 9.36459 3.46092 9.39906 3.44626 9.45138C3.43996 9.47375 3.44082 9.49565 3.44605 9.51675C3.44846 9.53357 3.4548 9.54869 3.46402 9.56184C3.46614 9.56576 3.4683 9.56969 3.47064 9.57351C3.47068 9.57279 3.47072 9.5721 3.47079 9.57138C3.52398 9.63304 3.64221 9.64028 3.6783 9.54012C3.69868 9.48376 3.67715 9.4372 3.6402 9.40943C3.6412 9.40914 3.64228 9.40892 3.64326 9.40864C3.74449 9.38087 3.84886 9.33657 3.88966 9.23167C3.93623 9.11185 3.88495 8.97467 3.77788 8.9173C3.80665 8.88914 3.83197 8.85802 3.85275 8.82521C3.90853 8.73723 3.93832 8.63481 3.94977 8.53181C3.96119 8.42942 3.97242 8.34072 4.04056 8.25843C4.16308 8.11059 4.41478 8.06133 4.54432 8.22775C4.60032 8.29963 4.62182 8.40202 4.5821 8.48654C4.54504 8.56545 4.45746 8.61684 4.37066 8.60848C4.27649 8.59941 4.20201 8.51434 4.20565 8.4193C4.20889 8.33611 4.27703 8.27121 4.35622 8.25602C4.19427 8.2334 4.09714 8.39924 4.13618 8.54229C4.10157 8.53678 4.06397 8.55335 4.03185 8.56397C4.13351 8.58205 4.20313 8.66366 4.28862 8.71386C4.39638 8.77721 4.52397 8.76086 4.62596 8.69218C4.70757 8.63726 4.7599 8.55662 4.78212 8.46742V11.7274H2.1081V8.46756C2.13036 8.55673 2.18265 8.63729 2.26426 8.69222C2.36625 8.76086 2.49381 8.77721 2.6016 8.7139C2.68706 8.66366 2.75663 8.58209 2.8583 8.56401C2.82621 8.55338 2.78862 8.53682 2.75404 8.54233ZM5.78838 8.54233C5.82735 8.39917 5.73022 8.23347 5.56819 8.25605C5.64739 8.27118 5.7157 8.33626 5.71887 8.41941C5.72251 8.51449 5.64793 8.59934 5.55382 8.60845C5.46721 8.61688 5.37923 8.56555 5.34231 8.48665C5.30263 8.40205 5.32409 8.29977 5.38016 8.22782C5.50711 8.065 5.75211 8.10836 5.87676 8.25011C5.94605 8.32898 5.96384 8.41732 5.97349 8.5187C5.98325 8.62224 6.01141 8.72553 6.0655 8.81506C6.08618 8.84927 6.11167 8.88183 6.14077 8.91129C6.02394 8.96484 5.96571 9.11005 6.01703 9.23512C6.05773 9.33953 6.16501 9.38177 6.26524 9.40946C6.22821 9.43719 6.20661 9.4838 6.2271 9.54023C6.26322 9.6406 6.38149 9.63315 6.43465 9.57124C6.43472 9.57199 6.43472 9.57279 6.43479 9.57354C6.43717 9.56955 6.43944 9.56544 6.4416 9.56133C6.45132 9.54729 6.45791 9.53123 6.45996 9.51315C6.46518 9.4896 6.4649 9.46518 6.45561 9.44076C6.4363 9.38995 6.38682 9.35804 6.34047 9.33466C6.26999 9.29908 6.1411 9.26955 6.11427 9.18254C6.10321 9.14458 6.08801 9.10014 6.10058 9.06096C6.11279 9.0082 6.13425 8.97046 6.16541 8.9347C6.22926 8.99174 6.30744 9.03406 6.39031 9.04958C6.44714 9.06748 6.51279 9.06723 6.56905 9.04951C6.64731 9.03478 6.72117 8.99603 6.78293 8.9437C6.81355 8.97975 6.83659 9.02019 6.8411 9.0714C6.84462 9.11087 6.83641 9.14563 6.82529 9.18269C6.78214 9.27431 6.67039 9.29663 6.58824 9.34032C6.54258 9.36463 6.49529 9.39906 6.4806 9.45138C6.47419 9.47418 6.4752 9.49647 6.48067 9.51794C6.48319 9.53375 6.48906 9.54808 6.49763 9.56065C6.49994 9.56501 6.50235 9.56929 6.50491 9.57351C6.50494 9.57275 6.50502 9.57196 6.50505 9.5712C6.55803 9.63289 6.67568 9.64031 6.71246 9.54092C6.70691 9.55629 6.70161 9.57095 6.71282 9.54016C6.7238 9.50955 6.71854 9.5241 6.71303 9.53937C6.7328 9.48329 6.71134 9.43705 6.6746 9.40946C6.67558 9.40918 6.67666 9.40896 6.67763 9.40871C6.77886 9.3808 6.8833 9.33668 6.924 9.23159C6.97049 9.11163 6.91928 8.97449 6.81211 8.91723C6.84376 8.88619 6.87138 8.85161 6.8935 8.81499C6.94759 8.72546 6.97579 8.62224 6.98558 8.51863C6.99516 8.41725 7.01303 8.32891 7.08232 8.25004C7.20689 8.10822 7.45192 8.06493 7.57887 8.22775C7.63495 8.29963 7.65634 8.40198 7.61669 8.48658C7.57974 8.56545 7.49183 8.6168 7.40518 8.60838C7.31108 8.59926 7.23653 8.51445 7.24016 8.41934C7.24333 8.33615 7.31162 8.27111 7.39085 8.25598C7.22886 8.23336 7.13165 8.39914 7.17069 8.54225C7.13612 8.5366 7.09852 8.55324 7.0664 8.56386C7.16807 8.58191 7.23768 8.66358 7.3231 8.71382C7.43089 8.77721 7.55845 8.76093 7.66044 8.69222C7.74205 8.63729 7.79434 8.55666 7.8166 8.46749V11.7274H5.14265V8.46756C5.16495 8.55677 5.2172 8.63729 5.29881 8.69222C5.4008 8.76089 5.52832 8.77717 5.63611 8.71382C5.72154 8.66358 5.79112 8.58191 5.89278 8.56386C5.86051 8.55331 5.82292 8.53667 5.78838 8.54233ZM8.82614 8.54233C8.86496 8.39924 8.76808 8.23329 8.60595 8.25605C8.68514 8.27118 8.75346 8.33626 8.75667 8.41941C8.7603 8.51456 8.68572 8.59934 8.59158 8.60845C8.50489 8.61688 8.41706 8.56555 8.38007 8.48665C8.34038 8.40205 8.36185 8.29977 8.41792 8.22782C8.5448 8.065 8.79002 8.10829 8.91451 8.25011C8.98377 8.32898 9.00167 8.41729 9.01125 8.51867C9.02097 8.62224 9.04917 8.72553 9.10326 8.81506C9.12393 8.84927 9.1494 8.88176 9.17846 8.91121C9.06163 8.96469 9.00347 9.11019 9.05482 9.23509C9.09559 9.33956 9.20284 9.38159 9.30303 9.40936C9.26604 9.43709 9.24436 9.48369 9.26486 9.54019C9.30098 9.64053 9.41921 9.63311 9.4724 9.5712C9.47248 9.57196 9.47248 9.57275 9.47255 9.57351C9.47492 9.56958 9.47712 9.56548 9.47932 9.56141C9.48908 9.54729 9.49581 9.53108 9.49783 9.5129C9.50301 9.48942 9.50266 9.46511 9.4934 9.44076C9.47413 9.38991 9.42465 9.358 9.37834 9.33459C9.30782 9.29897 9.17871 9.26944 9.15206 9.18236C9.14108 9.1444 9.12581 9.10018 9.13838 9.06092C9.15058 9.00816 9.17205 8.97046 9.2032 8.9347C9.26709 8.99171 9.34527 9.03399 9.42814 9.04954C9.4849 9.06744 9.55041 9.06719 9.60659 9.04958C9.68481 9.03478 9.759 8.99606 9.8208 8.94377C9.85138 8.97979 9.87439 9.02019 9.87889 9.07137C9.88242 9.11134 9.87356 9.14556 9.86283 9.18323C9.83449 9.27305 9.69821 9.30178 9.626 9.34021C9.58026 9.36452 9.53305 9.39898 9.51836 9.45131C9.51198 9.47404 9.51295 9.49626 9.51839 9.51765C9.52091 9.53368 9.52689 9.54815 9.53557 9.56083C9.53784 9.56504 9.54022 9.56926 9.5427 9.57343C9.54274 9.57268 9.54281 9.57189 9.54285 9.57117C9.59582 9.63279 9.71344 9.6402 9.75021 9.54092C9.7447 9.55626 9.73945 9.57081 9.75061 9.54012C9.76159 9.50951 9.75634 9.52395 9.75082 9.53922C9.77056 9.48319 9.74906 9.43691 9.71236 9.40936C9.71334 9.40907 9.71442 9.40885 9.71539 9.40856C9.81662 9.3808 9.92113 9.3365 9.96179 9.23152C10.0082 9.1116 9.95715 8.97456 9.85008 8.91723C9.87878 8.8891 9.9041 8.85806 9.92488 8.82529C9.9807 8.7373 10.0107 8.63481 10.022 8.53177C10.0332 8.42946 10.0447 8.34054 10.1128 8.25843C10.2355 8.11049 10.4869 8.06118 10.6166 8.22767C10.6726 8.29963 10.6941 8.40191 10.6544 8.4865C10.6174 8.56537 10.5296 8.61673 10.4429 8.6083C10.3488 8.59919 10.2742 8.51442 10.2779 8.41927C10.2811 8.33608 10.3493 8.27104 10.4285 8.25591C10.2664 8.23311 10.1694 8.39914 10.2084 8.54218C10.1738 8.53653 10.1362 8.55317 10.1041 8.56379C10.2058 8.58183 10.2754 8.66355 10.3608 8.71375C10.4686 8.77714 10.5962 8.76079 10.6982 8.69207C10.7798 8.63715 10.8321 8.55652 10.8543 8.46731V11.7273H8.18037V8.46745C8.20263 8.55659 8.25492 8.63711 8.33653 8.69204C8.43852 8.76071 8.56605 8.77706 8.6738 8.71372C8.75926 8.66348 8.82884 8.5818 8.93047 8.56376C8.89824 8.55331 8.86067 8.53664 8.82614 8.54233ZM11.8639 8.55493C11.9029 8.41178 11.8059 8.24604 11.6438 8.26866C11.723 8.28386 11.7913 8.34886 11.7944 8.43205C11.7981 8.52716 11.7235 8.61194 11.6294 8.62105C11.5427 8.62948 11.4549 8.57812 11.4179 8.49922C11.3782 8.41466 11.3997 8.31238 11.4557 8.24046C11.5826 8.07764 11.8277 8.12093 11.9523 8.26275C12.0215 8.34162 12.0395 8.42993 12.049 8.53131C12.0588 8.63492 12.087 8.73813 12.1411 8.82766C12.1617 8.86188 12.1872 8.8944 12.2163 8.92386C12.0994 8.97737 12.0413 9.12283 12.0926 9.24773C12.1333 9.3522 12.2406 9.39434 12.3408 9.422C12.3038 9.44976 12.2821 9.49637 12.3026 9.55284C12.3387 9.65317 12.4571 9.64571 12.5102 9.58381C12.5103 9.5846 12.5103 9.58543 12.5103 9.58622C12.5129 9.58204 12.5152 9.57776 12.5175 9.57343C12.5268 9.55986 12.5331 9.5443 12.5352 9.52694C12.5407 9.50303 12.5406 9.47825 12.5312 9.45347C12.5119 9.40262 12.4624 9.37071 12.4161 9.34731C12.3457 9.31172 12.2166 9.28216 12.1898 9.19515C12.1788 9.15719 12.1636 9.11286 12.1761 9.0736C12.1883 9.02084 12.2098 8.9831 12.2409 8.94737C12.3048 9.00442 12.3829 9.04666 12.4658 9.06222C12.5226 9.08016 12.5883 9.0799 12.6445 9.06218C12.7228 9.04746 12.7966 9.0087 12.8584 8.95638C12.889 8.99239 12.9121 9.03287 12.9166 9.08412C12.9202 9.12413 12.9112 9.15823 12.9006 9.19594C12.8724 9.28579 12.7359 9.3146 12.6637 9.35299C12.618 9.3773 12.5708 9.41177 12.5561 9.46413C12.5497 9.48664 12.5507 9.50865 12.556 9.52986C12.5585 9.54635 12.5646 9.56112 12.5736 9.57412C12.5758 9.57819 12.578 9.58229 12.5804 9.58626C12.5805 9.58554 12.5805 9.58478 12.5806 9.58406C12.6335 9.6455 12.7509 9.65281 12.7878 9.55388C12.7824 9.56915 12.7772 9.58341 12.7883 9.55287C12.7992 9.52244 12.7941 9.53656 12.7886 9.55175C12.8082 9.49583 12.7867 9.44969 12.7501 9.42214C12.7511 9.42189 12.7521 9.4216 12.7531 9.42135C12.8543 9.39344 12.9588 9.34936 12.9995 9.24427C13.046 9.12427 12.9948 8.98713 12.8876 8.92991C12.9192 8.89886 12.9468 8.86429 12.969 8.8277C13.0231 8.7382 13.0513 8.63488 13.061 8.53134C13.0706 8.43 13.0885 8.34159 13.1578 8.26279C13.2824 8.12104 13.5274 8.07761 13.6544 8.2405C13.7104 8.31238 13.7319 8.41473 13.6922 8.49925C13.6552 8.57812 13.5674 8.62952 13.4807 8.62109C13.3865 8.61198 13.312 8.5272 13.3156 8.43209C13.3188 8.34886 13.3871 8.28389 13.4663 8.26869C13.3042 8.24604 13.2073 8.41185 13.2461 8.55497C13.2116 8.54928 13.174 8.56595 13.1419 8.57658C13.2435 8.59462 13.3132 8.67633 13.3986 8.72654C13.5064 8.78992 13.6339 8.77364 13.7359 8.70489C13.8175 8.64997 13.8698 8.56937 13.892 8.4802V11.7275H11.2181V8.48006C11.2403 8.56926 11.2926 8.64994 11.3743 8.70489C11.4762 8.77361 11.6038 8.78988 11.7116 8.72654C11.7971 8.6763 11.8666 8.59462 11.9683 8.57658C11.9361 8.56592 11.8985 8.54928 11.8639 8.55493ZM15.158 5.31798V11.7286C15.1504 11.728 15.1429 11.7275 15.1357 11.7275H14.2521V5.40438C14.2533 5.40438 14.2544 5.40474 14.2556 5.40474C14.6264 5.4047 14.9257 5.37578 15.158 5.31798ZM12.555 3.58219C13.0032 3.89241 13.8919 4.62356 13.8919 5.18574V8.27719C13.8894 8.26697 13.8866 8.25677 13.8833 8.24658C13.8256 8.06767 13.6647 7.94356 13.4794 7.92696C13.6506 7.72388 13.6687 7.4003 13.4892 7.18735C13.3493 7.02154 13.1331 6.96849 12.9333 6.91325C12.8676 6.89506 12.792 6.87648 12.7341 6.83592C12.7692 6.84597 12.8074 6.84604 12.8438 6.8329C12.9361 6.79944 12.9855 6.69446 12.9521 6.60212C12.9186 6.50978 12.8138 6.46037 12.7213 6.49387C12.6828 6.50773 12.6525 6.53442 12.6318 6.56705C12.6317 6.56633 12.6317 6.5656 12.6317 6.56492C12.579 6.65272 12.5464 6.7514 12.5801 6.85278C12.6186 6.96827 12.7249 7.04199 12.8281 7.09587C12.9438 7.15627 13.0691 7.19747 13.1815 7.26445C13.2301 7.29348 13.2774 7.32845 13.3118 7.37401C13.3255 7.39212 13.3376 7.41175 13.3476 7.43217C13.3488 7.43483 13.3587 7.45802 13.3535 7.44243C13.3942 7.56146 13.4074 7.67602 13.3695 7.79879C13.353 7.85234 13.3279 7.89995 13.2973 7.9436C13.1739 7.97706 13.0628 8.05376 12.9884 8.1595C12.9314 8.24064 12.898 8.33694 12.8919 8.43591C12.8884 8.4922 12.8953 8.54834 12.8916 8.60474C12.8881 8.65728 12.8791 8.70961 12.8623 8.75963C12.8688 8.7404 12.8726 8.72924 12.8622 8.76014C12.8323 8.84877 12.8509 8.79352 12.862 8.76043C12.8465 8.80642 12.823 8.84949 12.7945 8.88881C12.8108 8.79918 12.7858 8.69628 12.7498 8.62015C12.7008 8.51683 12.6319 8.41999 12.555 8.33543C12.4862 8.41116 12.4248 8.49659 12.3769 8.58698C12.3315 8.67262 12.296 8.78751 12.315 8.88813C12.2866 8.84895 12.2634 8.80616 12.2479 8.76039C12.2591 8.79349 12.2777 8.84873 12.2478 8.7601C12.2374 8.72924 12.2411 8.74037 12.2477 8.7596C12.2309 8.70957 12.2218 8.65725 12.2184 8.6047C12.2147 8.54834 12.2215 8.49212 12.218 8.43587C12.2119 8.3369 12.1786 8.2406 12.1215 8.15946C12.0472 8.05366 11.9361 7.97698 11.8125 7.94353C11.782 7.89988 11.757 7.8523 11.7404 7.79875C11.7026 7.67598 11.7158 7.56142 11.7565 7.4424C11.7512 7.4581 11.762 7.43271 11.7636 7.42957C11.7752 7.40685 11.7888 7.38517 11.8049 7.36533C11.8411 7.32078 11.8897 7.28671 11.939 7.25822C12.0487 7.19494 12.1697 7.15436 12.2818 7.0958C12.3882 7.04027 12.4977 6.96327 12.5331 6.84226C12.5618 6.74384 12.5289 6.64934 12.4783 6.56488C12.4783 6.5656 12.4782 6.56632 12.4782 6.56708C12.4575 6.53442 12.4271 6.50773 12.3887 6.49387C12.2963 6.46037 12.1913 6.50971 12.1579 6.60212C12.1244 6.69446 12.1738 6.79944 12.2661 6.8329C12.3005 6.84532 12.3366 6.84622 12.3702 6.83783C12.3456 6.85462 12.3175 6.86801 12.2869 6.87918C12.191 6.91422 12.0903 6.93417 11.9931 6.96503C11.8009 7.02597 11.6109 7.13401 11.5345 7.33133C11.4787 7.47549 11.4783 7.6364 11.5378 7.77977C11.5607 7.83358 11.5915 7.88342 11.6288 7.92714C11.4443 7.94435 11.2842 8.06828 11.2267 8.24662C11.2234 8.25685 11.2205 8.26711 11.218 8.27745V5.18574C11.218 4.6245 12.1068 3.89274 12.555 3.58219ZM9.5171 3.56962C9.96532 3.8802 10.8542 4.6119 10.8542 5.17313V8.2648C10.8517 8.25451 10.8488 8.2442 10.8455 8.23401C10.7878 8.0551 10.6269 7.93103 10.4417 7.91439C10.6129 7.71131 10.6308 7.38762 10.4514 7.17478C10.3116 7.00904 10.0953 6.95592 9.89546 6.90068C9.82977 6.88249 9.7541 6.86387 9.69612 6.82328C9.73138 6.8334 9.76962 6.83347 9.80607 6.82033C9.89837 6.78687 9.94775 6.68189 9.91426 6.58955C9.88083 6.49722 9.77589 6.44788 9.68352 6.48137C9.64502 6.49523 9.61462 6.52188 9.59395 6.55458C9.59391 6.55383 9.59388 6.55311 9.59384 6.55239C9.54119 6.64022 9.50852 6.73887 9.54238 6.84028C9.58084 6.95567 9.68719 7.02946 9.79033 7.0833C9.90604 7.14366 10.0313 7.18493 10.1437 7.25188C10.1924 7.28091 10.2396 7.31588 10.274 7.36144C10.2877 7.37952 10.2999 7.39914 10.3098 7.41956C10.3111 7.42223 10.3209 7.44542 10.3157 7.42986C10.3567 7.5486 10.3695 7.66366 10.3317 7.78618C10.3152 7.8397 10.2902 7.88731 10.2596 7.93096C10.1361 7.96441 10.025 8.04105 9.95067 8.14686C9.89366 8.228 9.86023 8.32434 9.85418 8.4233C9.85069 8.47956 9.8575 8.53574 9.85379 8.59213C9.85037 8.6445 9.84136 8.69661 9.82473 8.74645C9.8311 8.72758 9.83467 8.71696 9.8244 8.7475C9.79458 8.83584 9.81298 8.78128 9.82411 8.74815C9.80856 8.79403 9.78522 8.83695 9.75669 8.87621C9.77297 8.78657 9.74802 8.68368 9.71193 8.60755C9.66299 8.50419 9.59406 8.40735 9.51717 8.32275C9.44835 8.39852 9.38698 8.48395 9.33908 8.57434C9.29374 8.66002 9.25812 8.77494 9.27721 8.8756C9.24879 8.83631 9.22546 8.79341 9.21001 8.7475C9.19312 8.69733 9.18404 8.64482 9.18062 8.59213C9.17687 8.53577 9.18368 8.47956 9.18026 8.4233C9.17417 8.32434 9.14079 8.22796 9.08374 8.14686C9.00937 8.04105 8.89827 7.96441 8.77474 7.93096C8.74421 7.88731 8.71918 7.83973 8.70265 7.78618C8.66479 7.66341 8.67808 7.54885 8.71867 7.42983C8.71345 7.44553 8.72422 7.42014 8.72584 7.41704C8.73744 7.39432 8.75101 7.3726 8.76711 7.35279C8.80327 7.30821 8.85189 7.27417 8.90126 7.24572C9.01092 7.18241 9.13189 7.14182 9.24404 7.0833C9.35046 7.02777 9.45998 6.95077 9.49531 6.82977C9.52408 6.73134 9.49117 6.6368 9.44053 6.55239C9.44049 6.55311 9.44046 6.55379 9.44042 6.55455C9.41975 6.52188 9.38936 6.4952 9.35086 6.48137C9.25848 6.44788 9.1535 6.49718 9.12012 6.58955C9.08662 6.68189 9.13607 6.78691 9.22837 6.82033C9.26277 6.83279 9.29892 6.83369 9.33249 6.82526C9.30786 6.84208 9.27977 6.85544 9.24915 6.86664C9.15329 6.90165 9.05252 6.92167 8.95532 6.9525C8.76311 7.01344 8.57314 7.12144 8.49676 7.31876C8.44097 7.46292 8.44047 7.62383 8.50007 7.76717C8.52287 7.82097 8.55373 7.87081 8.59104 7.91457C8.40654 7.93175 8.24642 8.05571 8.18895 8.23405C8.18563 8.2442 8.18282 8.25443 8.1803 8.26473V5.17321C8.18023 4.61197 9.06887 3.88024 9.5171 3.56962ZM6.47934 3.56962C6.92757 3.8802 7.81642 4.6119 7.81642 5.17313V8.2647C7.8139 8.2544 7.81109 8.24417 7.80778 8.23398C7.75012 8.05506 7.58917 7.93099 7.40395 7.91435C7.57509 7.71127 7.59303 7.38758 7.41361 7.17474C7.2738 7.00893 7.05754 6.95589 6.8577 6.90064C6.79194 6.88245 6.71631 6.86383 6.65833 6.82321C6.69355 6.83333 6.73183 6.8334 6.76831 6.82022C6.86065 6.7868 6.90999 6.68179 6.87657 6.58945C6.84308 6.49711 6.73813 6.4478 6.64576 6.48126C6.60726 6.49513 6.57686 6.52185 6.55619 6.55455C6.55616 6.55379 6.55612 6.55307 6.55608 6.55235C6.50343 6.64019 6.47077 6.73883 6.50462 6.84025C6.54315 6.95567 6.64939 7.02935 6.75257 7.08323C6.86829 7.14363 6.99358 7.18486 7.10591 7.25181C7.1546 7.28084 7.20185 7.31581 7.23627 7.36136C7.24996 7.37948 7.26206 7.39911 7.272 7.41953C7.2733 7.42219 7.28313 7.44538 7.27794 7.42983C7.31885 7.54864 7.33178 7.66356 7.29397 7.78615C7.27747 7.83966 7.25241 7.88727 7.22187 7.93092C7.09834 7.96438 6.98728 8.04101 6.91291 8.14686C6.8559 8.228 6.82248 8.3243 6.81643 8.42327C6.81293 8.47955 6.81974 8.53574 6.81607 8.5921C6.81261 8.64453 6.80361 8.69675 6.7869 8.74667C6.79334 8.72765 6.79698 8.71681 6.78664 8.7475C6.75679 8.83598 6.77526 8.7811 6.78643 8.748C6.77087 8.79392 6.74746 8.83688 6.71894 8.87617C6.73522 8.78654 6.71026 8.68364 6.67417 8.60751C6.62523 8.50419 6.5563 8.40731 6.47941 8.32272C6.41062 8.39849 6.34922 8.48395 6.30132 8.57434C6.25602 8.65998 6.2204 8.7749 6.23945 8.87549C6.21107 8.83627 6.18777 8.79341 6.17232 8.7476C6.18345 8.78066 6.20221 8.83627 6.17225 8.74746C6.16181 8.71652 6.16562 8.72783 6.17218 8.74724C6.15532 8.69715 6.14628 8.64471 6.14286 8.59206C6.13912 8.53574 6.14596 8.47952 6.1425 8.42323C6.13642 8.32426 6.10299 8.22796 6.04599 8.14682C5.97162 8.04102 5.86051 7.96434 5.73699 7.93089C5.70645 7.88724 5.68142 7.83963 5.66489 7.78607C5.62707 7.66338 5.64025 7.54871 5.68091 7.42972C5.67569 7.44549 5.68646 7.42007 5.68808 7.41693C5.69968 7.39421 5.71325 7.37253 5.72935 7.35268C5.76551 7.3081 5.81413 7.27407 5.8635 7.24558C5.97317 7.18234 6.09414 7.14172 6.20628 7.08319C6.31263 7.02766 6.42222 6.9507 6.45755 6.82969C6.48632 6.73127 6.45341 6.63677 6.40281 6.55232C6.40277 6.55307 6.40274 6.55379 6.40274 6.55451C6.38206 6.52181 6.35167 6.49513 6.31314 6.48122C6.22076 6.44777 6.11578 6.49703 6.08236 6.58941C6.04887 6.68178 6.09824 6.78684 6.19062 6.82019C6.22501 6.83265 6.2612 6.83355 6.29477 6.82512C6.2701 6.84194 6.24204 6.85537 6.2114 6.86654C6.11553 6.90158 6.01476 6.92153 5.91756 6.95239C5.72532 7.01333 5.53542 7.12133 5.459 7.31869C5.40321 7.46285 5.40274 7.62376 5.46231 7.7671C5.48514 7.8209 5.51597 7.87074 5.55332 7.9145C5.36882 7.93168 5.20863 8.05564 5.15112 8.23398C5.14787 8.2441 5.14503 8.25429 5.14254 8.26455V5.17313C5.14247 4.61197 6.03115 3.88024 6.47934 3.56962ZM3.44497 3.56962C3.89319 3.8802 4.78205 4.6119 4.78205 5.17313V8.26477C4.77953 8.25447 4.77672 8.24424 4.7734 8.23401C4.71571 8.0551 4.55487 7.93085 4.36965 7.91432C4.54065 7.7112 4.55865 7.38762 4.37923 7.17478C4.23939 7.00893 4.02309 6.95596 3.82329 6.90071C3.75749 6.88249 3.68179 6.86387 3.62381 6.82321C3.65907 6.83337 3.69735 6.83348 3.7339 6.82029C3.82621 6.78691 3.87547 6.68193 3.8422 6.58959C3.80881 6.49718 3.7038 6.44788 3.61138 6.48133C3.57289 6.4952 3.54249 6.52192 3.52182 6.55462C3.52178 6.55386 3.52175 6.55311 3.52171 6.55235C3.46906 6.64019 3.43636 6.73883 3.47018 6.84025C3.50871 6.95571 3.61499 7.02946 3.7182 7.0833C3.83388 7.1437 3.95917 7.1849 4.07153 7.25188C4.12022 7.28087 4.16747 7.31588 4.20187 7.3614C4.21559 7.37955 4.22769 7.39914 4.23763 7.41956C4.23892 7.42219 4.24876 7.44538 4.24357 7.4299C4.28423 7.54892 4.29741 7.66348 4.25956 7.78625C4.24307 7.83973 4.21804 7.88731 4.18753 7.93092C4.06397 7.96438 3.95283 8.04101 3.87846 8.14686C3.82145 8.22796 3.78818 8.32423 3.78213 8.42316C3.77867 8.47945 3.78544 8.53566 3.78169 8.59199C3.7782 8.64475 3.76909 8.69722 3.7522 8.74735C3.73668 8.79338 3.71327 8.83645 3.68474 8.87581C3.70095 8.78625 3.67599 8.6835 3.63994 8.6074C3.59097 8.50404 3.52196 8.40717 3.44507 8.32257C3.37622 8.39834 3.31481 8.4838 3.26691 8.57423C3.22157 8.6598 3.18595 8.77458 3.20493 8.87509C3.17666 8.83587 3.15343 8.79309 3.13802 8.74735C3.12109 8.69722 3.11195 8.64471 3.10853 8.59199C3.10478 8.53566 3.11151 8.47941 3.10806 8.42316C3.10204 8.32423 3.06869 8.22793 3.01172 8.14686C2.93732 8.04101 2.82618 7.96438 2.70261 7.93092C2.67211 7.88731 2.64708 7.83974 2.63062 7.78622C2.59274 7.66341 2.60603 7.54896 2.64658 7.42986C2.64136 7.44553 2.65216 7.42014 2.65374 7.41704C2.66534 7.39432 2.67892 7.3726 2.69502 7.35279C2.73117 7.30821 2.77979 7.27418 2.82917 7.24569C2.9389 7.18245 3.05983 7.14179 3.17202 7.08327C3.27837 7.02777 3.38796 6.95074 3.42329 6.82973C3.45202 6.7313 3.41914 6.63677 3.36851 6.55235C3.36847 6.55311 3.36844 6.55383 3.3684 6.55462C3.34776 6.52192 3.31733 6.4952 3.27883 6.48133C3.18646 6.44788 3.08137 6.49711 3.04806 6.58959C3.01467 6.68197 3.06401 6.78691 3.15639 6.82029C3.19085 6.83275 3.22701 6.83366 3.26058 6.82519C3.23591 6.84205 3.20781 6.85544 3.17713 6.86664C3.08123 6.90165 2.9805 6.92164 2.8833 6.95246C2.69105 7.01344 2.50112 7.12144 2.4247 7.3188C2.36888 7.463 2.36852 7.62387 2.42805 7.76724C2.45088 7.82101 2.48167 7.87078 2.51894 7.9145C2.33437 7.93164 2.17436 8.05567 2.11689 8.23405C2.11357 8.2442 2.11076 8.25443 2.10824 8.26473V5.17317C2.1081 4.61197 2.99677 3.88024 3.44497 3.56962ZM0.842073 5.31798C1.07433 5.37578 1.37367 5.4047 1.74447 5.4047C1.74566 5.4047 1.74677 5.40434 1.748 5.40434V11.7274H0.86433C0.857127 11.7274 0.8496 11.728 0.842073 11.7285V5.31798Z" fill="#1CB3B0"/>
</svg>
