<svg width="20" height="20" viewBox="0 0 20 20" fill="none" xmlns="http://www.w3.org/2000/svg">
<path d="M4.0625 8.4375C2.4375 6.8125 2.4375 4.25 4.0625 2.625L11 9.5625L13.3125 11.875L16.875 15.4375C17.5 16.0625 17.5 17 16.875 17.625C16.25 18.25 15.125 18.25 14.5625 17.5L12 14.3125C11.375 13.5 10.25 13.25 9.25 13.625L4.0625 8.4375Z" stroke="#1CB3B0" stroke-miterlimit="10" stroke-linecap="round" stroke-linejoin="round"/>
<path d="M13.3125 7.5625L16.6875 4.1875" stroke="#1CB3B0" stroke-miterlimit="10" stroke-linecap="round" stroke-linejoin="round"/>
<path d="M11.9375 10.5C12.1875 10.4375 12.375 10.4375 12.625 10.375C13.4375 10.3125 14.375 9.875 15.3125 8.9375L18.375 5.875" stroke="#1CB3B0" stroke-miterlimit="10" stroke-linecap="round" stroke-linejoin="round"/>
<path d="M7.6875 12.0625L3.3125 15.625C2.625 16.125 2.5625 17.125 3.1875 17.6875C3.8125 18.3125 4.75 18.1875 5.25 17.5625L8.8125 13.125" stroke="#1CB3B0" stroke-miterlimit="10" stroke-linecap="round" stroke-linejoin="round"/>
<path d="M15 2.5L11.875 5.5625C10.9375 6.5 10.4375 7.4375 10.4375 8.25C10.4375 8.5 10.375 8.6875 10.3125 8.9375" stroke="#1CB3B0" stroke-miterlimit="10" stroke-linecap="round" stroke-linejoin="round"/>
</svg>
