<svg width="16" height="16" viewBox="0 0 16 16" fill="none" xmlns="http://www.w3.org/2000/svg">
<path d="M12.0445 1.6875H11.2969C11.2389 1.6875 11.1832 1.71055 11.1422 1.75157C11.1012 1.79259 11.0781 1.84823 11.0781 1.90625V4.22875C11.0781 4.28677 11.1012 4.34241 11.1422 4.38343C11.1832 4.42445 11.2389 4.4475 11.2969 4.4475H11.452V8.66763C11.4518 8.84135 11.3827 9.0079 11.2599 9.13074C11.137 9.25358 10.9705 9.32268 10.7968 9.32288H10.6073C10.4335 9.32268 10.267 9.25358 10.1441 9.13074C10.0213 9.0079 9.9522 8.84135 9.952 8.66763V7.4015C9.9521 7.20265 9.89786 7.00756 9.79514 6.83729C9.69243 6.66703 9.54515 6.52807 9.3692 6.43542C9.19326 6.34277 8.99534 6.29995 8.79684 6.3116C8.59833 6.32325 8.40678 6.38891 8.24288 6.5015L8.16138 6.42C8.11959 6.38044 8.06423 6.35839 8.00669 6.35839C7.94915 6.35839 7.89379 6.38044 7.852 6.42L7.29338 6.97862V4.5H7.3125C7.5683 4.4997 7.81353 4.39795 7.9944 4.21706C8.17526 4.03617 8.27699 3.79092 8.27725 3.53513C8.27725 3.47711 8.25421 3.42147 8.21318 3.38045C8.17216 3.33942 8.11652 3.31638 8.0585 3.31638H7.471C7.59523 3.14268 7.66218 2.93455 7.6625 2.721V1.90663C7.6625 1.84861 7.63945 1.79297 7.59843 1.75195C7.55741 1.71092 7.50177 1.68788 7.44375 1.68788H5.81488C5.75686 1.68788 5.70122 1.71092 5.6602 1.75195C5.61917 1.79297 5.59613 1.84861 5.59613 1.90663V2.721C5.5961 2.93447 5.66265 3.14263 5.7865 3.3165H5.2C5.14199 3.3165 5.08635 3.33955 5.04532 3.38057C5.0043 3.42159 4.98125 3.47723 4.98125 3.53525C4.98158 3.79093 5.08326 4.03605 5.26401 4.21689C5.44475 4.39773 5.68982 4.49954 5.9455 4.5H5.96475V7.53963C5.73612 7.7026 5.57592 7.94444 5.51503 8.21853C5.45414 8.49262 5.49688 8.77955 5.635 9.024C4.707 9.51513 4.0125 10.666 4.0125 11.7774C4.0125 12.335 4.183 12.7564 4.52975 13.0478H3.9555C3.89749 13.0478 3.84185 13.0708 3.80082 13.1118C3.7598 13.1528 3.73675 13.2085 3.73675 13.2665V14.0934C3.73675 14.1514 3.7598 14.207 3.80082 14.2481C3.84185 14.2891 3.89749 14.3121 3.9555 14.3121H9.30275C9.36077 14.3121 9.41641 14.2891 9.45743 14.2481C9.49846 14.207 9.5215 14.1514 9.5215 14.0934V13.2665C9.5215 13.2085 9.49846 13.1528 9.45743 13.1118C9.41641 13.0708 9.36077 13.0478 9.30275 13.0478H8.72888C9.0755 12.7564 9.24613 12.3352 9.24613 11.7774C9.24613 10.6661 8.55125 9.51488 7.62325 9.024C7.76822 8.76917 7.80783 8.46776 7.73363 8.18412L8.675 7.2425C8.69533 7.2222 8.71146 7.19808 8.72246 7.17154C8.73347 7.145 8.73913 7.11655 8.73913 7.08781C8.73913 7.05908 8.73347 7.03063 8.72246 7.00409C8.71146 6.97754 8.69533 6.95343 8.675 6.93313L8.55913 6.81725C8.64289 6.77446 8.73488 6.7502 8.82885 6.7461C8.92283 6.742 9.01658 6.75817 9.10375 6.7935C9.2258 6.84117 9.33046 6.92486 9.40381 7.03344C9.47715 7.14202 9.51572 7.27035 9.51438 7.40137V8.66763C9.51471 8.95734 9.62994 9.23509 9.8348 9.43995C10.0397 9.64481 10.3174 9.76004 10.6071 9.76038H10.7966C11.0863 9.76004 11.3641 9.64481 11.569 9.43995C11.7738 9.23509 11.889 8.95734 11.8894 8.66763V4.44788H12.0444C12.1024 4.44788 12.158 4.42483 12.1991 4.3838C12.2401 4.34278 12.2631 4.28714 12.2631 4.22913V1.90663C12.2632 1.87788 12.2576 1.8494 12.2466 1.82283C12.2356 1.79625 12.2195 1.7721 12.1992 1.75175C12.1789 1.7314 12.1548 1.71525 12.1283 1.70422C12.1017 1.6932 12.0732 1.68752 12.0445 1.6875ZM6.03363 2.721V2.125H7.225V2.72062C7.225 2.87858 7.16226 3.03006 7.05057 3.14175C6.93888 3.25344 6.78739 3.31619 6.62944 3.31619C6.47149 3.31619 6.32 3.25344 6.20831 3.14175C6.09662 3.03006 6.03388 2.87858 6.03388 2.72062L6.03363 2.721ZM5.46575 3.754H7.7925C7.75045 3.846 7.68286 3.92398 7.59776 3.97867C7.51267 4.03336 7.41366 4.06246 7.3125 4.0625H5.9455C5.84438 4.06239 5.74542 4.03324 5.66037 3.97853C5.57533 3.92382 5.50778 3.84585 5.46575 3.75388V3.754ZM6.40225 4.5H6.856V7.34725C6.70628 7.31685 6.55197 7.31685 6.40225 7.34725V4.5ZM6.62913 7.7625C6.74507 7.76237 6.85925 7.79089 6.96151 7.84552C7.06377 7.90016 7.15094 7.97922 7.21528 8.07567C7.27962 8.17213 7.31913 8.28298 7.33029 8.39839C7.34145 8.51379 7.32392 8.63016 7.27926 8.73716C7.2346 8.84415 7.16419 8.93846 7.0743 9.01168C6.9844 9.0849 6.87781 9.13477 6.76399 9.15686C6.65017 9.17895 6.53266 9.17257 6.4219 9.13829C6.31114 9.10401 6.21057 9.0429 6.12913 8.96037L6.12788 8.959C6.0306 8.86023 5.96469 8.7349 5.93844 8.59878C5.91219 8.46265 5.92676 8.32181 5.98033 8.19394C6.03389 8.06608 6.12406 7.9569 6.2395 7.88014C6.35494 7.80337 6.49049 7.76244 6.62913 7.7625ZM8.80863 11.7774C8.80863 12.5266 8.44763 12.9075 7.60163 13.0509C7.54746 13.0599 7.49869 13.089 7.465 13.1324C7.4313 13.1758 7.41515 13.2302 7.41975 13.2849C7.42434 13.3397 7.44935 13.3907 7.48981 13.4278C7.53027 13.4649 7.58321 13.4855 7.63813 13.4854H9.084V13.875H4.17425V13.4856H5.62013C5.67504 13.4857 5.72799 13.4652 5.76844 13.428C5.8089 13.3909 5.83391 13.3399 5.83851 13.2852C5.8431 13.2305 5.82695 13.176 5.79326 13.1327C5.75956 13.0893 5.71079 13.0602 5.65663 13.0511C4.8105 12.9079 4.44963 12.527 4.44963 11.7778C4.44963 10.7812 5.091 9.75075 5.92963 9.36525C6.12922 9.52167 6.37548 9.60668 6.62906 9.60668C6.88265 9.60668 7.12891 9.52167 7.3285 9.36525C8.16713 9.75 8.80863 10.781 8.80863 11.7774ZM7.53063 7.7685C7.47134 7.69203 7.40263 7.62337 7.32613 7.56413L8.00675 6.8835L8.077 6.95375L8.21075 7.0875L7.53063 7.7685ZM11.5156 2.125H11.8258V4.01H11.5156V2.125Z" fill="#1CB3B0"/>
<path d="M5.6215 9.90161C4.76525 10.6907 4.74425 11.503 4.74375 11.5371C4.74335 11.5658 4.74862 11.5944 4.75925 11.6211C4.76988 11.6477 4.78566 11.6721 4.80569 11.6927C4.82573 11.7133 4.84962 11.7297 4.87601 11.7411C4.9024 11.7524 4.93077 11.7585 4.9595 11.7589H4.9625C5.02 11.7589 5.07519 11.7362 5.11613 11.6959C5.15707 11.6555 5.18046 11.6006 5.18125 11.5431C5.18125 11.5366 5.19862 10.8862 5.918 10.2232C5.93913 10.2038 5.95621 10.1803 5.96828 10.1543C5.98035 10.1282 5.98716 10.1 5.98833 10.0713C5.98951 10.0426 5.98501 10.0139 5.97511 9.98696C5.96521 9.95999 5.95009 9.93524 5.93062 9.91411C5.91116 9.89299 5.88772 9.8759 5.86165 9.86383C5.83557 9.85177 5.80738 9.84495 5.77868 9.84378C5.74997 9.84261 5.72132 9.8471 5.69435 9.857C5.66738 9.8669 5.64263 9.88202 5.6215 9.90149V9.90161Z" fill="#1CB3B0"/>
</svg>
