<svg width="65" height="13" viewBox="0 0 65 13" fill="none" xmlns="http://www.w3.org/2000/svg">
<g clip-path="url(#clip0_1_71)">
<path fill-rule="evenodd" clip-rule="evenodd" d="M64.025 4.84902L60.5294 4.58138L59.1644 1.74559C58.9189 1.22942 58.0811 1.22942 57.8355 1.74559L56.4705 4.58775L52.9822 4.84902C52.3466 4.89363 52.0866 5.59461 52.5705 5.96422L55.2211 7.99069L54.4266 10.9985C54.2822 11.5466 54.9539 11.9799 55.5027 11.6868L58.5 10.0936L61.4972 11.6931C62.0461 11.9863 62.7177 11.5529 62.5733 11.0049L61.7789 7.99069L64.4294 5.96422C64.9133 5.59461 64.6605 4.89363 64.025 4.84902ZM58.5 8.90196V2.97549L59.735 5.55L62.8983 5.79216L60.5005 7.62745L61.2227 10.3549L58.5 8.90196Z" fill="#F1A736"/>
</g>
<path d="M9.70662 7.75684C9.56578 7.89226 9.50078 8.09213 9.53382 8.28226L10.0154 10.9473C10.0538 11.1748 9.96174 11.4017 9.77162 11.5323C9.58745 11.6677 9.3437 11.6839 9.13787 11.5756L6.73882 10.3243C6.65162 10.281 6.55953 10.2534 6.46799 10.2534H6.3212C6.26703 10.2588 6.21882 10.281 6.17495 10.3021L3.77537 11.5593C3.6562 11.6189 3.52078 11.6406 3.39078 11.6189C3.06578 11.5539 2.85507 11.25 2.9087 10.9305L3.39078 8.26546C3.42328 8.07101 3.35828 7.87601 3.21799 7.73517L1.26203 5.83934C1.09953 5.67684 1.03995 5.44338 1.11632 5.22726C1.18674 5.01546 1.37037 4.85838 1.59787 4.82101L4.28995 4.43046C4.49578 4.4088 4.67453 4.28476 4.76662 4.10059L5.95287 1.66851C5.97995 1.61434 6.01787 1.56505 6.06174 1.52226L6.10995 1.48434C6.13162 1.45671 6.16412 1.43559 6.19716 1.41392L6.2562 1.39226L6.34828 1.35434H6.57632C6.78216 1.37601 6.96091 1.50005 7.05299 1.6788L8.25495 4.10059C8.34162 4.27934 8.50953 4.39851 8.70453 4.43046L11.3966 4.82101C11.6241 4.85351 11.8142 5.01059 11.8895 5.22726C11.9599 5.44338 11.9004 5.68226 11.7325 5.83934L9.70662 7.75684Z" fill="#F1A736"/>
<path d="M22.7066 7.75684C22.5658 7.89226 22.5008 8.09213 22.5338 8.28226L23.0154 10.9473C23.0538 11.1748 22.9617 11.4017 22.7716 11.5323C22.5874 11.6677 22.3437 11.6839 22.1379 11.5756L19.7388 10.3243C19.6516 10.281 19.5595 10.2534 19.468 10.2534H19.3212C19.267 10.2588 19.2188 10.281 19.1749 10.3021L16.7754 11.5593C16.6562 11.6189 16.5208 11.6406 16.3908 11.6189C16.0658 11.5539 15.8551 11.25 15.9087 10.9305L16.3908 8.26546C16.4233 8.07101 16.3583 7.87601 16.218 7.73517L14.262 5.83934C14.0995 5.67684 14.0399 5.44338 14.1163 5.22726C14.1867 5.01546 14.3704 4.85838 14.5979 4.82101L17.2899 4.43046C17.4958 4.4088 17.6745 4.28476 17.7666 4.10059L18.9529 1.66851C18.9799 1.61434 19.0179 1.56505 19.0617 1.52226L19.1099 1.48434C19.1316 1.45671 19.1641 1.43559 19.1972 1.41392L19.2562 1.39226L19.3483 1.35434H19.5763C19.7822 1.37601 19.9609 1.50005 20.053 1.6788L21.2549 4.10059C21.3416 4.27934 21.5095 4.39851 21.7045 4.43046L24.3966 4.82101C24.6241 4.85351 24.8142 5.01059 24.8895 5.22726C24.9599 5.44338 24.9004 5.68226 24.7325 5.83934L22.7066 7.75684Z" fill="#F1A736"/>
<path d="M35.7066 7.75684C35.5658 7.89226 35.5008 8.09213 35.5338 8.28226L36.0154 10.9473C36.0538 11.1748 35.9617 11.4017 35.7716 11.5323C35.5874 11.6677 35.3437 11.6839 35.1379 11.5756L32.7388 10.3243C32.6516 10.281 32.5595 10.2534 32.468 10.2534H32.3212C32.267 10.2588 32.2188 10.281 32.1749 10.3021L29.7754 11.5593C29.6562 11.6189 29.5208 11.6406 29.3908 11.6189C29.0658 11.5539 28.8551 11.25 28.9087 10.9305L29.3908 8.26546C29.4233 8.07101 29.3583 7.87601 29.218 7.73517L27.262 5.83934C27.0995 5.67684 27.0399 5.44338 27.1163 5.22726C27.1867 5.01546 27.3704 4.85838 27.5979 4.82101L30.2899 4.43046C30.4958 4.4088 30.6745 4.28476 30.7666 4.10059L31.9529 1.66851C31.9799 1.61434 32.0179 1.56505 32.0617 1.52226L32.1099 1.48434C32.1316 1.45671 32.1641 1.43559 32.1972 1.41392L32.2562 1.39226L32.3483 1.35434H32.5763C32.7822 1.37601 32.9609 1.50005 33.053 1.6788L34.2549 4.10059C34.3416 4.27934 34.5095 4.39851 34.7045 4.43046L37.3966 4.82101C37.6241 4.85351 37.8142 5.01059 37.8895 5.22726C37.9599 5.44338 37.9004 5.68226 37.7325 5.83934L35.7066 7.75684Z" fill="#F1A736"/>
<path d="M48.7066 7.75684C48.5658 7.89226 48.5008 8.09213 48.5338 8.28226L49.0154 10.9473C49.0538 11.1748 48.9617 11.4017 48.7716 11.5323C48.5874 11.6677 48.3437 11.6839 48.1379 11.5756L45.7388 10.3243C45.6516 10.281 45.5595 10.2534 45.468 10.2534H45.3212C45.267 10.2588 45.2188 10.281 45.1749 10.3021L42.7754 11.5593C42.6562 11.6189 42.5208 11.6406 42.3908 11.6189C42.0658 11.5539 41.8551 11.25 41.9087 10.9305L42.3908 8.26546C42.4233 8.07101 42.3583 7.87601 42.218 7.73517L40.262 5.83934C40.0995 5.67684 40.0399 5.44338 40.1163 5.22726C40.1867 5.01546 40.3704 4.85838 40.5979 4.82101L43.2899 4.43046C43.4958 4.4088 43.6745 4.28476 43.7666 4.10059L44.9529 1.66851C44.9799 1.61434 45.0179 1.56505 45.0617 1.52226L45.1099 1.48434C45.1316 1.45671 45.1641 1.43559 45.1972 1.41392L45.2562 1.39226L45.3483 1.35434H45.5763C45.7822 1.37601 45.9609 1.50005 46.053 1.6788L47.2549 4.10059C47.3416 4.27934 47.5095 4.39851 47.7045 4.43046L50.3966 4.82101C50.6241 4.85351 50.8142 5.01059 50.8895 5.22726C50.9599 5.44338 50.9004 5.68226 50.7325 5.83934L48.7066 7.75684Z" fill="#F1A736"/>
<defs>
<clipPath id="clip0_1_71">
<rect width="13" height="10.8333" fill="white" transform="translate(52 1)"/>
</clipPath>
</defs>
</svg>
