<svg width="19" height="19" viewBox="0 0 19 19" fill="none" xmlns="http://www.w3.org/2000/svg">
<path d="M4.01018 11.123C3.72577 11.123 3.49536 11.3538 3.49536 11.6382C3.49536 11.9226 3.72577 12.1534 4.01018 12.1534C4.29499 12.1534 4.52541 11.9226 4.52541 11.6382C4.52541 11.3538 4.29499 11.123 4.01018 11.123Z" fill="#1CB3B0"/>
<path d="M17.7116 7.17413L14.0915 5.7233C13.4888 5.48161 12.8539 5.35922 12.2043 5.35922H9.98532C9.19036 5.35922 8.39536 5.54959 7.68665 5.91019L4.40652 7.57821L2.05348 7.92129C1.48311 8.00445 0.961652 8.29042 0.584398 8.72675C0.207479 9.16275 0 9.72032 0 10.2965V11.6852C0 11.8997 0.17408 12.0737 0.388535 12.0737H2.05541C2.13895 12.4518 2.33051 12.7976 2.61335 13.0734C2.98946 13.4391 3.48565 13.6407 4.01056 13.6407C4.5351 13.6407 5.03129 13.4391 5.40739 13.0734C5.69065 12.7972 5.88258 12.4506 5.96574 12.0737H12.9297C13.0132 12.4518 13.2048 12.7976 13.488 13.0731C13.8638 13.4391 14.3599 13.6407 14.8845 13.6407C15.4094 13.6407 15.9056 13.4391 16.2813 13.0734C16.5645 12.7976 16.7561 12.4518 16.8396 12.0737H18.6114C18.8259 12.0737 19 11.8996 19 11.6852V9.07881C19 8.23564 18.4941 7.48811 17.7116 7.17413ZM13.8024 6.44445L16.5968 7.56463H14.4882L13.5599 6.35587C13.6411 6.38307 13.722 6.41261 13.8024 6.44445ZM10.3498 6.13633H12.2043C12.275 6.13633 12.3454 6.13789 12.4153 6.14138L13.5083 7.56463H10.3498V6.13633ZM8.03867 6.60298C8.51619 6.36014 9.03958 6.20862 9.57266 6.15693V7.56463H6.14761L8.03867 6.60298ZM2.10555 8.70074C1.94587 9.2412 1.46912 9.64684 0.891738 9.70202C1.09413 9.19422 1.54757 8.80371 2.10555 8.70074ZM4.01019 12.8637C3.33335 12.8637 2.78472 12.315 2.78472 11.6382C2.78472 10.9614 3.33335 10.4127 4.01019 10.4127C4.68703 10.4127 5.23565 10.9614 5.23565 11.6382C5.23569 12.315 4.68706 12.8637 4.01019 12.8637ZM14.8849 12.8637C14.2081 12.8637 13.659 12.315 13.659 11.6382C13.659 10.9614 14.2081 10.4127 14.8849 10.4127C15.5617 10.4127 16.1104 10.9614 16.1104 11.6382C16.1104 12.315 15.5617 12.8637 14.8849 12.8637ZM18.2229 11.2966H16.8575C16.6947 10.3548 15.8726 9.6356 14.8845 9.6356C13.8968 9.6356 13.0746 10.3548 12.9118 11.2966H5.98363C5.82083 10.3548 4.99826 9.6356 4.0106 9.6356C3.02252 9.6356 2.20036 10.3548 2.03756 11.2966H0.777107V10.4854C1.87788 10.4753 2.78628 9.64688 2.92188 8.57991L4.55573 8.34174H14.2966C14.2966 8.34174 14.2966 8.34174 14.297 8.34174C14.297 8.34174 14.297 8.34174 14.2974 8.34174H16.7561V8.84762C16.7561 9.55867 17.3346 10.1372 18.0453 10.1372H18.2229V11.2966ZM18.2229 9.36013H18.0453C17.7632 9.36013 17.5332 9.13013 17.5332 8.84765V8.34178H17.989C18.1378 8.55237 18.2229 8.80724 18.2229 9.07884V9.36013Z" fill="#1CB3B0"/>
<path d="M14.8849 11.123C14.6001 11.123 14.3697 11.3538 14.3697 11.6382C14.3697 11.9226 14.6001 12.1534 14.8849 12.1534C15.1693 12.1534 15.3997 11.9226 15.3997 11.6382C15.3997 11.3538 15.1693 11.123 14.8849 11.123Z" fill="#1CB3B0"/>
<path d="M10.7691 9.43071H8.192C7.9774 9.43071 7.80347 9.60468 7.80347 9.81925C7.80347 10.0338 7.97744 10.2078 8.192 10.2078H10.7691C10.9837 10.2078 11.1576 10.0338 11.1576 9.81925C11.1576 9.60468 10.9837 9.43071 10.7691 9.43071Z" fill="#1CB3B0"/>
<path d="M4.01018 11.123C3.72577 11.123 3.49536 11.3538 3.49536 11.6382C3.49536 11.9226 3.72577 12.1534 4.01018 12.1534C4.29499 12.1534 4.52541 11.9226 4.52541 11.6382C4.52541 11.3538 4.29499 11.123 4.01018 11.123Z" fill="#1CB3B0"/>
<path d="M14.8849 11.123C14.6001 11.123 14.3697 11.3538 14.3697 11.6382C14.3697 11.9226 14.6001 12.1534 14.8849 12.1534C15.1693 12.1534 15.3997 11.9226 15.3997 11.6382C15.3997 11.3538 15.1693 11.123 14.8849 11.123Z" fill="#1CB3B0"/>
<path d="M4.01018 11.123C3.72577 11.123 3.49536 11.3538 3.49536 11.6382C3.49536 11.9226 3.72577 12.1534 4.01018 12.1534C4.29499 12.1534 4.52541 11.9226 4.52541 11.6382C4.52541 11.3538 4.29499 11.123 4.01018 11.123Z" fill="#1CB3B0"/>
<path d="M14.8849 11.123C14.6001 11.123 14.3697 11.3538 14.3697 11.6382C14.3697 11.9226 14.6001 12.1534 14.8849 12.1534C15.1693 12.1534 15.3997 11.9226 15.3997 11.6382C15.3997 11.3538 15.1693 11.123 14.8849 11.123Z" fill="#1CB3B0"/>
</svg>
