<svg width="12" height="8" viewBox="0 0 12 8" fill="none" xmlns="http://www.w3.org/2000/svg">
<path fill-rule="evenodd" clip-rule="evenodd" d="M6.01888 3.29435C4.91821 3.29435 3.85236 3.6801 3.00664 4.38452C2.80691 4.55088 2.51013 4.52383 2.34377 4.3241C2.17741 4.12437 2.20446 3.82759 2.40419 3.66123C3.41906 2.81592 4.69808 2.35303 6.01888 2.35303C7.33967 2.35303 8.6187 2.81592 9.63356 3.66123C9.83329 3.82759 9.86034 4.12437 9.69398 4.3241C9.52762 4.52383 9.23085 4.55088 9.03111 4.38452C8.18539 3.6801 7.11954 3.29435 6.01888 3.29435Z" fill="#1CB3B0"/>
<path fill-rule="evenodd" clip-rule="evenodd" d="M6.00008 0.941324C4.28112 0.941324 2.6212 1.56847 1.3317 2.70514C1.1367 2.87702 0.839283 2.85829 0.667398 2.66329C0.495513 2.46829 0.51425 2.17087 0.709247 1.99899C2.17069 0.71077 4.05192 0 6.00008 0C7.94824 0 9.82947 0.71077 11.2909 1.99899C11.4859 2.17087 11.5046 2.46829 11.3328 2.66329C11.1609 2.85829 10.8635 2.87702 10.6685 2.70514C9.37895 1.56847 7.71904 0.941324 6.00008 0.941324Z" fill="#1CB3B0"/>
<path fill-rule="evenodd" clip-rule="evenodd" d="M6.00237 5.64729C5.51393 5.64729 5.03759 5.79927 4.63941 6.08216C4.4275 6.23271 4.13368 6.18297 3.98313 5.97106C3.83258 5.75916 3.88232 5.46533 4.09423 5.31478C4.65168 4.91874 5.31855 4.70596 6.00237 4.70596C6.68619 4.70596 7.35306 4.91874 7.91051 5.31478C8.12242 5.46533 8.17216 5.75916 8.02161 5.97106C7.87106 6.18297 7.57723 6.23271 7.36533 6.08216C6.96715 5.79927 6.49081 5.64729 6.00237 5.64729Z" fill="#1CB3B0"/>
<path fill-rule="evenodd" clip-rule="evenodd" d="M5.5293 7.52935C5.5293 7.26941 5.74002 7.05869 5.99996 7.05869H6.00467C6.26461 7.05869 6.47533 7.26941 6.47533 7.52935C6.47533 7.78929 6.26461 8.00001 6.00467 8.00001H5.99996C5.74002 8.00001 5.5293 7.78929 5.5293 7.52935Z" fill="#1CB3B0"/>
</svg>
